%TF.GenerationSoftware,KiCad,Pcbnew,(5.1.6)-1*%
%TF.CreationDate,2020-11-21T18:59:45+08:00*%
%TF.ProjectId,Nov_21,4e6f765f-3231-42e6-9b69-6361645f7063,rev?*%
%TF.SameCoordinates,Original*%
%TF.FileFunction,Paste,Top*%
%TF.FilePolarity,Positive*%
%FSLAX46Y46*%
G04 Gerber Fmt 4.6, Leading zero omitted, Abs format (unit mm)*
G04 Created by KiCad (PCBNEW (5.1.6)-1) date 2020-11-21 18:59:45*
%MOMM*%
%LPD*%
G01*
G04 APERTURE LIST*
%ADD10R,1.220000X0.650000*%
%ADD11R,0.900000X0.800000*%
%ADD12R,1.900000X1.500000*%
%ADD13R,1.350000X0.400000*%
%ADD14R,1.200000X0.900000*%
%ADD15R,2.000000X2.000000*%
G04 APERTURE END LIST*
D10*
%TO.C,U3*%
X137200000Y-80330000D03*
X137200000Y-81280000D03*
X137200000Y-82230000D03*
X134580000Y-82230000D03*
X134580000Y-81280000D03*
X134580000Y-80330000D03*
%TD*%
%TO.C,U2*%
G36*
G01*
X133120000Y-63985000D02*
X133120000Y-64285000D01*
G75*
G02*
X132970000Y-64435000I-150000J0D01*
G01*
X131320000Y-64435000D01*
G75*
G02*
X131170000Y-64285000I0J150000D01*
G01*
X131170000Y-63985000D01*
G75*
G02*
X131320000Y-63835000I150000J0D01*
G01*
X132970000Y-63835000D01*
G75*
G02*
X133120000Y-63985000I0J-150000D01*
G01*
G37*
G36*
G01*
X133120000Y-62715000D02*
X133120000Y-63015000D01*
G75*
G02*
X132970000Y-63165000I-150000J0D01*
G01*
X131320000Y-63165000D01*
G75*
G02*
X131170000Y-63015000I0J150000D01*
G01*
X131170000Y-62715000D01*
G75*
G02*
X131320000Y-62565000I150000J0D01*
G01*
X132970000Y-62565000D01*
G75*
G02*
X133120000Y-62715000I0J-150000D01*
G01*
G37*
G36*
G01*
X133120000Y-61445000D02*
X133120000Y-61745000D01*
G75*
G02*
X132970000Y-61895000I-150000J0D01*
G01*
X131320000Y-61895000D01*
G75*
G02*
X131170000Y-61745000I0J150000D01*
G01*
X131170000Y-61445000D01*
G75*
G02*
X131320000Y-61295000I150000J0D01*
G01*
X132970000Y-61295000D01*
G75*
G02*
X133120000Y-61445000I0J-150000D01*
G01*
G37*
G36*
G01*
X133120000Y-60175000D02*
X133120000Y-60475000D01*
G75*
G02*
X132970000Y-60625000I-150000J0D01*
G01*
X131320000Y-60625000D01*
G75*
G02*
X131170000Y-60475000I0J150000D01*
G01*
X131170000Y-60175000D01*
G75*
G02*
X131320000Y-60025000I150000J0D01*
G01*
X132970000Y-60025000D01*
G75*
G02*
X133120000Y-60175000I0J-150000D01*
G01*
G37*
G36*
G01*
X133120000Y-58905000D02*
X133120000Y-59205000D01*
G75*
G02*
X132970000Y-59355000I-150000J0D01*
G01*
X131320000Y-59355000D01*
G75*
G02*
X131170000Y-59205000I0J150000D01*
G01*
X131170000Y-58905000D01*
G75*
G02*
X131320000Y-58755000I150000J0D01*
G01*
X132970000Y-58755000D01*
G75*
G02*
X133120000Y-58905000I0J-150000D01*
G01*
G37*
G36*
G01*
X133120000Y-57635000D02*
X133120000Y-57935000D01*
G75*
G02*
X132970000Y-58085000I-150000J0D01*
G01*
X131320000Y-58085000D01*
G75*
G02*
X131170000Y-57935000I0J150000D01*
G01*
X131170000Y-57635000D01*
G75*
G02*
X131320000Y-57485000I150000J0D01*
G01*
X132970000Y-57485000D01*
G75*
G02*
X133120000Y-57635000I0J-150000D01*
G01*
G37*
G36*
G01*
X133120000Y-56365000D02*
X133120000Y-56665000D01*
G75*
G02*
X132970000Y-56815000I-150000J0D01*
G01*
X131320000Y-56815000D01*
G75*
G02*
X131170000Y-56665000I0J150000D01*
G01*
X131170000Y-56365000D01*
G75*
G02*
X131320000Y-56215000I150000J0D01*
G01*
X132970000Y-56215000D01*
G75*
G02*
X133120000Y-56365000I0J-150000D01*
G01*
G37*
G36*
G01*
X133120000Y-55095000D02*
X133120000Y-55395000D01*
G75*
G02*
X132970000Y-55545000I-150000J0D01*
G01*
X131320000Y-55545000D01*
G75*
G02*
X131170000Y-55395000I0J150000D01*
G01*
X131170000Y-55095000D01*
G75*
G02*
X131320000Y-54945000I150000J0D01*
G01*
X132970000Y-54945000D01*
G75*
G02*
X133120000Y-55095000I0J-150000D01*
G01*
G37*
G36*
G01*
X138070000Y-55095000D02*
X138070000Y-55395000D01*
G75*
G02*
X137920000Y-55545000I-150000J0D01*
G01*
X136270000Y-55545000D01*
G75*
G02*
X136120000Y-55395000I0J150000D01*
G01*
X136120000Y-55095000D01*
G75*
G02*
X136270000Y-54945000I150000J0D01*
G01*
X137920000Y-54945000D01*
G75*
G02*
X138070000Y-55095000I0J-150000D01*
G01*
G37*
G36*
G01*
X138070000Y-56365000D02*
X138070000Y-56665000D01*
G75*
G02*
X137920000Y-56815000I-150000J0D01*
G01*
X136270000Y-56815000D01*
G75*
G02*
X136120000Y-56665000I0J150000D01*
G01*
X136120000Y-56365000D01*
G75*
G02*
X136270000Y-56215000I150000J0D01*
G01*
X137920000Y-56215000D01*
G75*
G02*
X138070000Y-56365000I0J-150000D01*
G01*
G37*
G36*
G01*
X138070000Y-57635000D02*
X138070000Y-57935000D01*
G75*
G02*
X137920000Y-58085000I-150000J0D01*
G01*
X136270000Y-58085000D01*
G75*
G02*
X136120000Y-57935000I0J150000D01*
G01*
X136120000Y-57635000D01*
G75*
G02*
X136270000Y-57485000I150000J0D01*
G01*
X137920000Y-57485000D01*
G75*
G02*
X138070000Y-57635000I0J-150000D01*
G01*
G37*
G36*
G01*
X138070000Y-58905000D02*
X138070000Y-59205000D01*
G75*
G02*
X137920000Y-59355000I-150000J0D01*
G01*
X136270000Y-59355000D01*
G75*
G02*
X136120000Y-59205000I0J150000D01*
G01*
X136120000Y-58905000D01*
G75*
G02*
X136270000Y-58755000I150000J0D01*
G01*
X137920000Y-58755000D01*
G75*
G02*
X138070000Y-58905000I0J-150000D01*
G01*
G37*
G36*
G01*
X138070000Y-60175000D02*
X138070000Y-60475000D01*
G75*
G02*
X137920000Y-60625000I-150000J0D01*
G01*
X136270000Y-60625000D01*
G75*
G02*
X136120000Y-60475000I0J150000D01*
G01*
X136120000Y-60175000D01*
G75*
G02*
X136270000Y-60025000I150000J0D01*
G01*
X137920000Y-60025000D01*
G75*
G02*
X138070000Y-60175000I0J-150000D01*
G01*
G37*
G36*
G01*
X138070000Y-61445000D02*
X138070000Y-61745000D01*
G75*
G02*
X137920000Y-61895000I-150000J0D01*
G01*
X136270000Y-61895000D01*
G75*
G02*
X136120000Y-61745000I0J150000D01*
G01*
X136120000Y-61445000D01*
G75*
G02*
X136270000Y-61295000I150000J0D01*
G01*
X137920000Y-61295000D01*
G75*
G02*
X138070000Y-61445000I0J-150000D01*
G01*
G37*
G36*
G01*
X138070000Y-62715000D02*
X138070000Y-63015000D01*
G75*
G02*
X137920000Y-63165000I-150000J0D01*
G01*
X136270000Y-63165000D01*
G75*
G02*
X136120000Y-63015000I0J150000D01*
G01*
X136120000Y-62715000D01*
G75*
G02*
X136270000Y-62565000I150000J0D01*
G01*
X137920000Y-62565000D01*
G75*
G02*
X138070000Y-62715000I0J-150000D01*
G01*
G37*
G36*
G01*
X138070000Y-63985000D02*
X138070000Y-64285000D01*
G75*
G02*
X137920000Y-64435000I-150000J0D01*
G01*
X136270000Y-64435000D01*
G75*
G02*
X136120000Y-64285000I0J150000D01*
G01*
X136120000Y-63985000D01*
G75*
G02*
X136270000Y-63835000I150000J0D01*
G01*
X137920000Y-63835000D01*
G75*
G02*
X138070000Y-63985000I0J-150000D01*
G01*
G37*
%TD*%
%TO.C,R25*%
G36*
G01*
X169692500Y-102056250D02*
X169692500Y-101143750D01*
G75*
G02*
X169936250Y-100900000I243750J0D01*
G01*
X170423750Y-100900000D01*
G75*
G02*
X170667500Y-101143750I0J-243750D01*
G01*
X170667500Y-102056250D01*
G75*
G02*
X170423750Y-102300000I-243750J0D01*
G01*
X169936250Y-102300000D01*
G75*
G02*
X169692500Y-102056250I0J243750D01*
G01*
G37*
G36*
G01*
X167817500Y-102056250D02*
X167817500Y-101143750D01*
G75*
G02*
X168061250Y-100900000I243750J0D01*
G01*
X168548750Y-100900000D01*
G75*
G02*
X168792500Y-101143750I0J-243750D01*
G01*
X168792500Y-102056250D01*
G75*
G02*
X168548750Y-102300000I-243750J0D01*
G01*
X168061250Y-102300000D01*
G75*
G02*
X167817500Y-102056250I0J243750D01*
G01*
G37*
%TD*%
%TO.C,R24*%
G36*
G01*
X175710000Y-79196250D02*
X175710000Y-78283750D01*
G75*
G02*
X175953750Y-78040000I243750J0D01*
G01*
X176441250Y-78040000D01*
G75*
G02*
X176685000Y-78283750I0J-243750D01*
G01*
X176685000Y-79196250D01*
G75*
G02*
X176441250Y-79440000I-243750J0D01*
G01*
X175953750Y-79440000D01*
G75*
G02*
X175710000Y-79196250I0J243750D01*
G01*
G37*
G36*
G01*
X173835000Y-79196250D02*
X173835000Y-78283750D01*
G75*
G02*
X174078750Y-78040000I243750J0D01*
G01*
X174566250Y-78040000D01*
G75*
G02*
X174810000Y-78283750I0J-243750D01*
G01*
X174810000Y-79196250D01*
G75*
G02*
X174566250Y-79440000I-243750J0D01*
G01*
X174078750Y-79440000D01*
G75*
G02*
X173835000Y-79196250I0J243750D01*
G01*
G37*
%TD*%
%TO.C,R23*%
G36*
G01*
X174810000Y-83363750D02*
X174810000Y-84276250D01*
G75*
G02*
X174566250Y-84520000I-243750J0D01*
G01*
X174078750Y-84520000D01*
G75*
G02*
X173835000Y-84276250I0J243750D01*
G01*
X173835000Y-83363750D01*
G75*
G02*
X174078750Y-83120000I243750J0D01*
G01*
X174566250Y-83120000D01*
G75*
G02*
X174810000Y-83363750I0J-243750D01*
G01*
G37*
G36*
G01*
X176685000Y-83363750D02*
X176685000Y-84276250D01*
G75*
G02*
X176441250Y-84520000I-243750J0D01*
G01*
X175953750Y-84520000D01*
G75*
G02*
X175710000Y-84276250I0J243750D01*
G01*
X175710000Y-83363750D01*
G75*
G02*
X175953750Y-83120000I243750J0D01*
G01*
X176441250Y-83120000D01*
G75*
G02*
X176685000Y-83363750I0J-243750D01*
G01*
G37*
%TD*%
%TO.C,R22*%
G36*
G01*
X169692500Y-99516250D02*
X169692500Y-98603750D01*
G75*
G02*
X169936250Y-98360000I243750J0D01*
G01*
X170423750Y-98360000D01*
G75*
G02*
X170667500Y-98603750I0J-243750D01*
G01*
X170667500Y-99516250D01*
G75*
G02*
X170423750Y-99760000I-243750J0D01*
G01*
X169936250Y-99760000D01*
G75*
G02*
X169692500Y-99516250I0J243750D01*
G01*
G37*
G36*
G01*
X167817500Y-99516250D02*
X167817500Y-98603750D01*
G75*
G02*
X168061250Y-98360000I243750J0D01*
G01*
X168548750Y-98360000D01*
G75*
G02*
X168792500Y-98603750I0J-243750D01*
G01*
X168792500Y-99516250D01*
G75*
G02*
X168548750Y-99760000I-243750J0D01*
G01*
X168061250Y-99760000D01*
G75*
G02*
X167817500Y-99516250I0J243750D01*
G01*
G37*
%TD*%
%TO.C,R21*%
G36*
G01*
X169692500Y-96976250D02*
X169692500Y-96063750D01*
G75*
G02*
X169936250Y-95820000I243750J0D01*
G01*
X170423750Y-95820000D01*
G75*
G02*
X170667500Y-96063750I0J-243750D01*
G01*
X170667500Y-96976250D01*
G75*
G02*
X170423750Y-97220000I-243750J0D01*
G01*
X169936250Y-97220000D01*
G75*
G02*
X169692500Y-96976250I0J243750D01*
G01*
G37*
G36*
G01*
X167817500Y-96976250D02*
X167817500Y-96063750D01*
G75*
G02*
X168061250Y-95820000I243750J0D01*
G01*
X168548750Y-95820000D01*
G75*
G02*
X168792500Y-96063750I0J-243750D01*
G01*
X168792500Y-96976250D01*
G75*
G02*
X168548750Y-97220000I-243750J0D01*
G01*
X168061250Y-97220000D01*
G75*
G02*
X167817500Y-96976250I0J243750D01*
G01*
G37*
%TD*%
%TO.C,R20*%
G36*
G01*
X169692500Y-94436250D02*
X169692500Y-93523750D01*
G75*
G02*
X169936250Y-93280000I243750J0D01*
G01*
X170423750Y-93280000D01*
G75*
G02*
X170667500Y-93523750I0J-243750D01*
G01*
X170667500Y-94436250D01*
G75*
G02*
X170423750Y-94680000I-243750J0D01*
G01*
X169936250Y-94680000D01*
G75*
G02*
X169692500Y-94436250I0J243750D01*
G01*
G37*
G36*
G01*
X167817500Y-94436250D02*
X167817500Y-93523750D01*
G75*
G02*
X168061250Y-93280000I243750J0D01*
G01*
X168548750Y-93280000D01*
G75*
G02*
X168792500Y-93523750I0J-243750D01*
G01*
X168792500Y-94436250D01*
G75*
G02*
X168548750Y-94680000I-243750J0D01*
G01*
X168061250Y-94680000D01*
G75*
G02*
X167817500Y-94436250I0J243750D01*
G01*
G37*
%TD*%
%TO.C,R19*%
G36*
G01*
X169692500Y-91896250D02*
X169692500Y-90983750D01*
G75*
G02*
X169936250Y-90740000I243750J0D01*
G01*
X170423750Y-90740000D01*
G75*
G02*
X170667500Y-90983750I0J-243750D01*
G01*
X170667500Y-91896250D01*
G75*
G02*
X170423750Y-92140000I-243750J0D01*
G01*
X169936250Y-92140000D01*
G75*
G02*
X169692500Y-91896250I0J243750D01*
G01*
G37*
G36*
G01*
X167817500Y-91896250D02*
X167817500Y-90983750D01*
G75*
G02*
X168061250Y-90740000I243750J0D01*
G01*
X168548750Y-90740000D01*
G75*
G02*
X168792500Y-90983750I0J-243750D01*
G01*
X168792500Y-91896250D01*
G75*
G02*
X168548750Y-92140000I-243750J0D01*
G01*
X168061250Y-92140000D01*
G75*
G02*
X167817500Y-91896250I0J243750D01*
G01*
G37*
%TD*%
%TO.C,R18*%
G36*
G01*
X169692500Y-89356250D02*
X169692500Y-88443750D01*
G75*
G02*
X169936250Y-88200000I243750J0D01*
G01*
X170423750Y-88200000D01*
G75*
G02*
X170667500Y-88443750I0J-243750D01*
G01*
X170667500Y-89356250D01*
G75*
G02*
X170423750Y-89600000I-243750J0D01*
G01*
X169936250Y-89600000D01*
G75*
G02*
X169692500Y-89356250I0J243750D01*
G01*
G37*
G36*
G01*
X167817500Y-89356250D02*
X167817500Y-88443750D01*
G75*
G02*
X168061250Y-88200000I243750J0D01*
G01*
X168548750Y-88200000D01*
G75*
G02*
X168792500Y-88443750I0J-243750D01*
G01*
X168792500Y-89356250D01*
G75*
G02*
X168548750Y-89600000I-243750J0D01*
G01*
X168061250Y-89600000D01*
G75*
G02*
X167817500Y-89356250I0J243750D01*
G01*
G37*
%TD*%
%TO.C,R17*%
G36*
G01*
X169692500Y-86816250D02*
X169692500Y-85903750D01*
G75*
G02*
X169936250Y-85660000I243750J0D01*
G01*
X170423750Y-85660000D01*
G75*
G02*
X170667500Y-85903750I0J-243750D01*
G01*
X170667500Y-86816250D01*
G75*
G02*
X170423750Y-87060000I-243750J0D01*
G01*
X169936250Y-87060000D01*
G75*
G02*
X169692500Y-86816250I0J243750D01*
G01*
G37*
G36*
G01*
X167817500Y-86816250D02*
X167817500Y-85903750D01*
G75*
G02*
X168061250Y-85660000I243750J0D01*
G01*
X168548750Y-85660000D01*
G75*
G02*
X168792500Y-85903750I0J-243750D01*
G01*
X168792500Y-86816250D01*
G75*
G02*
X168548750Y-87060000I-243750J0D01*
G01*
X168061250Y-87060000D01*
G75*
G02*
X167817500Y-86816250I0J243750D01*
G01*
G37*
%TD*%
%TO.C,R16*%
G36*
G01*
X169692500Y-84276250D02*
X169692500Y-83363750D01*
G75*
G02*
X169936250Y-83120000I243750J0D01*
G01*
X170423750Y-83120000D01*
G75*
G02*
X170667500Y-83363750I0J-243750D01*
G01*
X170667500Y-84276250D01*
G75*
G02*
X170423750Y-84520000I-243750J0D01*
G01*
X169936250Y-84520000D01*
G75*
G02*
X169692500Y-84276250I0J243750D01*
G01*
G37*
G36*
G01*
X167817500Y-84276250D02*
X167817500Y-83363750D01*
G75*
G02*
X168061250Y-83120000I243750J0D01*
G01*
X168548750Y-83120000D01*
G75*
G02*
X168792500Y-83363750I0J-243750D01*
G01*
X168792500Y-84276250D01*
G75*
G02*
X168548750Y-84520000I-243750J0D01*
G01*
X168061250Y-84520000D01*
G75*
G02*
X167817500Y-84276250I0J243750D01*
G01*
G37*
%TD*%
%TO.C,R15*%
G36*
G01*
X169692500Y-81736250D02*
X169692500Y-80823750D01*
G75*
G02*
X169936250Y-80580000I243750J0D01*
G01*
X170423750Y-80580000D01*
G75*
G02*
X170667500Y-80823750I0J-243750D01*
G01*
X170667500Y-81736250D01*
G75*
G02*
X170423750Y-81980000I-243750J0D01*
G01*
X169936250Y-81980000D01*
G75*
G02*
X169692500Y-81736250I0J243750D01*
G01*
G37*
G36*
G01*
X167817500Y-81736250D02*
X167817500Y-80823750D01*
G75*
G02*
X168061250Y-80580000I243750J0D01*
G01*
X168548750Y-80580000D01*
G75*
G02*
X168792500Y-80823750I0J-243750D01*
G01*
X168792500Y-81736250D01*
G75*
G02*
X168548750Y-81980000I-243750J0D01*
G01*
X168061250Y-81980000D01*
G75*
G02*
X167817500Y-81736250I0J243750D01*
G01*
G37*
%TD*%
%TO.C,R14*%
G36*
G01*
X169692500Y-79196250D02*
X169692500Y-78283750D01*
G75*
G02*
X169936250Y-78040000I243750J0D01*
G01*
X170423750Y-78040000D01*
G75*
G02*
X170667500Y-78283750I0J-243750D01*
G01*
X170667500Y-79196250D01*
G75*
G02*
X170423750Y-79440000I-243750J0D01*
G01*
X169936250Y-79440000D01*
G75*
G02*
X169692500Y-79196250I0J243750D01*
G01*
G37*
G36*
G01*
X167817500Y-79196250D02*
X167817500Y-78283750D01*
G75*
G02*
X168061250Y-78040000I243750J0D01*
G01*
X168548750Y-78040000D01*
G75*
G02*
X168792500Y-78283750I0J-243750D01*
G01*
X168792500Y-79196250D01*
G75*
G02*
X168548750Y-79440000I-243750J0D01*
G01*
X168061250Y-79440000D01*
G75*
G02*
X167817500Y-79196250I0J243750D01*
G01*
G37*
%TD*%
%TO.C,R13*%
G36*
G01*
X163380000Y-80823750D02*
X163380000Y-81736250D01*
G75*
G02*
X163136250Y-81980000I-243750J0D01*
G01*
X162648750Y-81980000D01*
G75*
G02*
X162405000Y-81736250I0J243750D01*
G01*
X162405000Y-80823750D01*
G75*
G02*
X162648750Y-80580000I243750J0D01*
G01*
X163136250Y-80580000D01*
G75*
G02*
X163380000Y-80823750I0J-243750D01*
G01*
G37*
G36*
G01*
X165255000Y-80823750D02*
X165255000Y-81736250D01*
G75*
G02*
X165011250Y-81980000I-243750J0D01*
G01*
X164523750Y-81980000D01*
G75*
G02*
X164280000Y-81736250I0J243750D01*
G01*
X164280000Y-80823750D01*
G75*
G02*
X164523750Y-80580000I243750J0D01*
G01*
X165011250Y-80580000D01*
G75*
G02*
X165255000Y-80823750I0J-243750D01*
G01*
G37*
%TD*%
%TO.C,R12*%
G36*
G01*
X163380000Y-98603750D02*
X163380000Y-99516250D01*
G75*
G02*
X163136250Y-99760000I-243750J0D01*
G01*
X162648750Y-99760000D01*
G75*
G02*
X162405000Y-99516250I0J243750D01*
G01*
X162405000Y-98603750D01*
G75*
G02*
X162648750Y-98360000I243750J0D01*
G01*
X163136250Y-98360000D01*
G75*
G02*
X163380000Y-98603750I0J-243750D01*
G01*
G37*
G36*
G01*
X165255000Y-98603750D02*
X165255000Y-99516250D01*
G75*
G02*
X165011250Y-99760000I-243750J0D01*
G01*
X164523750Y-99760000D01*
G75*
G02*
X164280000Y-99516250I0J243750D01*
G01*
X164280000Y-98603750D01*
G75*
G02*
X164523750Y-98360000I243750J0D01*
G01*
X165011250Y-98360000D01*
G75*
G02*
X165255000Y-98603750I0J-243750D01*
G01*
G37*
%TD*%
%TO.C,R11*%
G36*
G01*
X163380000Y-96063750D02*
X163380000Y-96976250D01*
G75*
G02*
X163136250Y-97220000I-243750J0D01*
G01*
X162648750Y-97220000D01*
G75*
G02*
X162405000Y-96976250I0J243750D01*
G01*
X162405000Y-96063750D01*
G75*
G02*
X162648750Y-95820000I243750J0D01*
G01*
X163136250Y-95820000D01*
G75*
G02*
X163380000Y-96063750I0J-243750D01*
G01*
G37*
G36*
G01*
X165255000Y-96063750D02*
X165255000Y-96976250D01*
G75*
G02*
X165011250Y-97220000I-243750J0D01*
G01*
X164523750Y-97220000D01*
G75*
G02*
X164280000Y-96976250I0J243750D01*
G01*
X164280000Y-96063750D01*
G75*
G02*
X164523750Y-95820000I243750J0D01*
G01*
X165011250Y-95820000D01*
G75*
G02*
X165255000Y-96063750I0J-243750D01*
G01*
G37*
%TD*%
%TO.C,R10*%
G36*
G01*
X163380000Y-93523750D02*
X163380000Y-94436250D01*
G75*
G02*
X163136250Y-94680000I-243750J0D01*
G01*
X162648750Y-94680000D01*
G75*
G02*
X162405000Y-94436250I0J243750D01*
G01*
X162405000Y-93523750D01*
G75*
G02*
X162648750Y-93280000I243750J0D01*
G01*
X163136250Y-93280000D01*
G75*
G02*
X163380000Y-93523750I0J-243750D01*
G01*
G37*
G36*
G01*
X165255000Y-93523750D02*
X165255000Y-94436250D01*
G75*
G02*
X165011250Y-94680000I-243750J0D01*
G01*
X164523750Y-94680000D01*
G75*
G02*
X164280000Y-94436250I0J243750D01*
G01*
X164280000Y-93523750D01*
G75*
G02*
X164523750Y-93280000I243750J0D01*
G01*
X165011250Y-93280000D01*
G75*
G02*
X165255000Y-93523750I0J-243750D01*
G01*
G37*
%TD*%
%TO.C,R9*%
G36*
G01*
X163380000Y-88443750D02*
X163380000Y-89356250D01*
G75*
G02*
X163136250Y-89600000I-243750J0D01*
G01*
X162648750Y-89600000D01*
G75*
G02*
X162405000Y-89356250I0J243750D01*
G01*
X162405000Y-88443750D01*
G75*
G02*
X162648750Y-88200000I243750J0D01*
G01*
X163136250Y-88200000D01*
G75*
G02*
X163380000Y-88443750I0J-243750D01*
G01*
G37*
G36*
G01*
X165255000Y-88443750D02*
X165255000Y-89356250D01*
G75*
G02*
X165011250Y-89600000I-243750J0D01*
G01*
X164523750Y-89600000D01*
G75*
G02*
X164280000Y-89356250I0J243750D01*
G01*
X164280000Y-88443750D01*
G75*
G02*
X164523750Y-88200000I243750J0D01*
G01*
X165011250Y-88200000D01*
G75*
G02*
X165255000Y-88443750I0J-243750D01*
G01*
G37*
%TD*%
%TO.C,R8*%
G36*
G01*
X163380000Y-85903750D02*
X163380000Y-86816250D01*
G75*
G02*
X163136250Y-87060000I-243750J0D01*
G01*
X162648750Y-87060000D01*
G75*
G02*
X162405000Y-86816250I0J243750D01*
G01*
X162405000Y-85903750D01*
G75*
G02*
X162648750Y-85660000I243750J0D01*
G01*
X163136250Y-85660000D01*
G75*
G02*
X163380000Y-85903750I0J-243750D01*
G01*
G37*
G36*
G01*
X165255000Y-85903750D02*
X165255000Y-86816250D01*
G75*
G02*
X165011250Y-87060000I-243750J0D01*
G01*
X164523750Y-87060000D01*
G75*
G02*
X164280000Y-86816250I0J243750D01*
G01*
X164280000Y-85903750D01*
G75*
G02*
X164523750Y-85660000I243750J0D01*
G01*
X165011250Y-85660000D01*
G75*
G02*
X165255000Y-85903750I0J-243750D01*
G01*
G37*
%TD*%
%TO.C,R7*%
G36*
G01*
X163380000Y-83363750D02*
X163380000Y-84276250D01*
G75*
G02*
X163136250Y-84520000I-243750J0D01*
G01*
X162648750Y-84520000D01*
G75*
G02*
X162405000Y-84276250I0J243750D01*
G01*
X162405000Y-83363750D01*
G75*
G02*
X162648750Y-83120000I243750J0D01*
G01*
X163136250Y-83120000D01*
G75*
G02*
X163380000Y-83363750I0J-243750D01*
G01*
G37*
G36*
G01*
X165255000Y-83363750D02*
X165255000Y-84276250D01*
G75*
G02*
X165011250Y-84520000I-243750J0D01*
G01*
X164523750Y-84520000D01*
G75*
G02*
X164280000Y-84276250I0J243750D01*
G01*
X164280000Y-83363750D01*
G75*
G02*
X164523750Y-83120000I243750J0D01*
G01*
X165011250Y-83120000D01*
G75*
G02*
X165255000Y-83363750I0J-243750D01*
G01*
G37*
%TD*%
%TO.C,R6*%
G36*
G01*
X163380000Y-101143750D02*
X163380000Y-102056250D01*
G75*
G02*
X163136250Y-102300000I-243750J0D01*
G01*
X162648750Y-102300000D01*
G75*
G02*
X162405000Y-102056250I0J243750D01*
G01*
X162405000Y-101143750D01*
G75*
G02*
X162648750Y-100900000I243750J0D01*
G01*
X163136250Y-100900000D01*
G75*
G02*
X163380000Y-101143750I0J-243750D01*
G01*
G37*
G36*
G01*
X165255000Y-101143750D02*
X165255000Y-102056250D01*
G75*
G02*
X165011250Y-102300000I-243750J0D01*
G01*
X164523750Y-102300000D01*
G75*
G02*
X164280000Y-102056250I0J243750D01*
G01*
X164280000Y-101143750D01*
G75*
G02*
X164523750Y-100900000I243750J0D01*
G01*
X165011250Y-100900000D01*
G75*
G02*
X165255000Y-101143750I0J-243750D01*
G01*
G37*
%TD*%
%TO.C,R5*%
G36*
G01*
X163380000Y-90983750D02*
X163380000Y-91896250D01*
G75*
G02*
X163136250Y-92140000I-243750J0D01*
G01*
X162648750Y-92140000D01*
G75*
G02*
X162405000Y-91896250I0J243750D01*
G01*
X162405000Y-90983750D01*
G75*
G02*
X162648750Y-90740000I243750J0D01*
G01*
X163136250Y-90740000D01*
G75*
G02*
X163380000Y-90983750I0J-243750D01*
G01*
G37*
G36*
G01*
X165255000Y-90983750D02*
X165255000Y-91896250D01*
G75*
G02*
X165011250Y-92140000I-243750J0D01*
G01*
X164523750Y-92140000D01*
G75*
G02*
X164280000Y-91896250I0J243750D01*
G01*
X164280000Y-90983750D01*
G75*
G02*
X164523750Y-90740000I243750J0D01*
G01*
X165011250Y-90740000D01*
G75*
G02*
X165255000Y-90983750I0J-243750D01*
G01*
G37*
%TD*%
%TO.C,R4*%
G36*
G01*
X163380000Y-78283750D02*
X163380000Y-79196250D01*
G75*
G02*
X163136250Y-79440000I-243750J0D01*
G01*
X162648750Y-79440000D01*
G75*
G02*
X162405000Y-79196250I0J243750D01*
G01*
X162405000Y-78283750D01*
G75*
G02*
X162648750Y-78040000I243750J0D01*
G01*
X163136250Y-78040000D01*
G75*
G02*
X163380000Y-78283750I0J-243750D01*
G01*
G37*
G36*
G01*
X165255000Y-78283750D02*
X165255000Y-79196250D01*
G75*
G02*
X165011250Y-79440000I-243750J0D01*
G01*
X164523750Y-79440000D01*
G75*
G02*
X164280000Y-79196250I0J243750D01*
G01*
X164280000Y-78283750D01*
G75*
G02*
X164523750Y-78040000I243750J0D01*
G01*
X165011250Y-78040000D01*
G75*
G02*
X165255000Y-78283750I0J-243750D01*
G01*
G37*
%TD*%
%TO.C,R3*%
G36*
G01*
X137616250Y-104627500D02*
X136703750Y-104627500D01*
G75*
G02*
X136460000Y-104383750I0J243750D01*
G01*
X136460000Y-103896250D01*
G75*
G02*
X136703750Y-103652500I243750J0D01*
G01*
X137616250Y-103652500D01*
G75*
G02*
X137860000Y-103896250I0J-243750D01*
G01*
X137860000Y-104383750D01*
G75*
G02*
X137616250Y-104627500I-243750J0D01*
G01*
G37*
G36*
G01*
X137616250Y-106502500D02*
X136703750Y-106502500D01*
G75*
G02*
X136460000Y-106258750I0J243750D01*
G01*
X136460000Y-105771250D01*
G75*
G02*
X136703750Y-105527500I243750J0D01*
G01*
X137616250Y-105527500D01*
G75*
G02*
X137860000Y-105771250I0J-243750D01*
G01*
X137860000Y-106258750D01*
G75*
G02*
X137616250Y-106502500I-243750J0D01*
G01*
G37*
%TD*%
%TO.C,R2*%
G36*
G01*
X129996250Y-104627500D02*
X129083750Y-104627500D01*
G75*
G02*
X128840000Y-104383750I0J243750D01*
G01*
X128840000Y-103896250D01*
G75*
G02*
X129083750Y-103652500I243750J0D01*
G01*
X129996250Y-103652500D01*
G75*
G02*
X130240000Y-103896250I0J-243750D01*
G01*
X130240000Y-104383750D01*
G75*
G02*
X129996250Y-104627500I-243750J0D01*
G01*
G37*
G36*
G01*
X129996250Y-106502500D02*
X129083750Y-106502500D01*
G75*
G02*
X128840000Y-106258750I0J243750D01*
G01*
X128840000Y-105771250D01*
G75*
G02*
X129083750Y-105527500I243750J0D01*
G01*
X129996250Y-105527500D01*
G75*
G02*
X130240000Y-105771250I0J-243750D01*
G01*
X130240000Y-106258750D01*
G75*
G02*
X129996250Y-106502500I-243750J0D01*
G01*
G37*
%TD*%
%TO.C,R1*%
G36*
G01*
X135433750Y-101112500D02*
X136346250Y-101112500D01*
G75*
G02*
X136590000Y-101356250I0J-243750D01*
G01*
X136590000Y-101843750D01*
G75*
G02*
X136346250Y-102087500I-243750J0D01*
G01*
X135433750Y-102087500D01*
G75*
G02*
X135190000Y-101843750I0J243750D01*
G01*
X135190000Y-101356250D01*
G75*
G02*
X135433750Y-101112500I243750J0D01*
G01*
G37*
G36*
G01*
X135433750Y-99237500D02*
X136346250Y-99237500D01*
G75*
G02*
X136590000Y-99481250I0J-243750D01*
G01*
X136590000Y-99968750D01*
G75*
G02*
X136346250Y-100212500I-243750J0D01*
G01*
X135433750Y-100212500D01*
G75*
G02*
X135190000Y-99968750I0J243750D01*
G01*
X135190000Y-99481250D01*
G75*
G02*
X135433750Y-99237500I243750J0D01*
G01*
G37*
%TD*%
D11*
%TO.C,Q1*%
X139430000Y-114300000D03*
X137430000Y-115250000D03*
X137430000Y-113350000D03*
%TD*%
%TO.C,J5*%
G36*
G01*
X185560440Y-77513320D02*
X185560440Y-77213320D01*
G75*
G02*
X185710440Y-77063320I150000J0D01*
G01*
X187160440Y-77063320D01*
G75*
G02*
X187310440Y-77213320I0J-150000D01*
G01*
X187310440Y-77513320D01*
G75*
G02*
X187160440Y-77663320I-150000J0D01*
G01*
X185710440Y-77663320D01*
G75*
G02*
X185560440Y-77513320I0J150000D01*
G01*
G37*
G36*
G01*
X185560440Y-78783320D02*
X185560440Y-78483320D01*
G75*
G02*
X185710440Y-78333320I150000J0D01*
G01*
X187160440Y-78333320D01*
G75*
G02*
X187310440Y-78483320I0J-150000D01*
G01*
X187310440Y-78783320D01*
G75*
G02*
X187160440Y-78933320I-150000J0D01*
G01*
X185710440Y-78933320D01*
G75*
G02*
X185560440Y-78783320I0J150000D01*
G01*
G37*
G36*
G01*
X185560440Y-80053320D02*
X185560440Y-79753320D01*
G75*
G02*
X185710440Y-79603320I150000J0D01*
G01*
X187160440Y-79603320D01*
G75*
G02*
X187310440Y-79753320I0J-150000D01*
G01*
X187310440Y-80053320D01*
G75*
G02*
X187160440Y-80203320I-150000J0D01*
G01*
X185710440Y-80203320D01*
G75*
G02*
X185560440Y-80053320I0J150000D01*
G01*
G37*
G36*
G01*
X185560440Y-81323320D02*
X185560440Y-81023320D01*
G75*
G02*
X185710440Y-80873320I150000J0D01*
G01*
X187160440Y-80873320D01*
G75*
G02*
X187310440Y-81023320I0J-150000D01*
G01*
X187310440Y-81323320D01*
G75*
G02*
X187160440Y-81473320I-150000J0D01*
G01*
X185710440Y-81473320D01*
G75*
G02*
X185560440Y-81323320I0J150000D01*
G01*
G37*
G36*
G01*
X180410440Y-81323320D02*
X180410440Y-81023320D01*
G75*
G02*
X180560440Y-80873320I150000J0D01*
G01*
X182010440Y-80873320D01*
G75*
G02*
X182160440Y-81023320I0J-150000D01*
G01*
X182160440Y-81323320D01*
G75*
G02*
X182010440Y-81473320I-150000J0D01*
G01*
X180560440Y-81473320D01*
G75*
G02*
X180410440Y-81323320I0J150000D01*
G01*
G37*
G36*
G01*
X180410440Y-80053320D02*
X180410440Y-79753320D01*
G75*
G02*
X180560440Y-79603320I150000J0D01*
G01*
X182010440Y-79603320D01*
G75*
G02*
X182160440Y-79753320I0J-150000D01*
G01*
X182160440Y-80053320D01*
G75*
G02*
X182010440Y-80203320I-150000J0D01*
G01*
X180560440Y-80203320D01*
G75*
G02*
X180410440Y-80053320I0J150000D01*
G01*
G37*
G36*
G01*
X180410440Y-78783320D02*
X180410440Y-78483320D01*
G75*
G02*
X180560440Y-78333320I150000J0D01*
G01*
X182010440Y-78333320D01*
G75*
G02*
X182160440Y-78483320I0J-150000D01*
G01*
X182160440Y-78783320D01*
G75*
G02*
X182010440Y-78933320I-150000J0D01*
G01*
X180560440Y-78933320D01*
G75*
G02*
X180410440Y-78783320I0J150000D01*
G01*
G37*
G36*
G01*
X180410440Y-77513320D02*
X180410440Y-77213320D01*
G75*
G02*
X180560440Y-77063320I150000J0D01*
G01*
X182010440Y-77063320D01*
G75*
G02*
X182160440Y-77213320I0J-150000D01*
G01*
X182160440Y-77513320D01*
G75*
G02*
X182010440Y-77663320I-150000J0D01*
G01*
X180560440Y-77663320D01*
G75*
G02*
X180410440Y-77513320I0J150000D01*
G01*
G37*
%TD*%
D12*
%TO.C,J2*%
X124492500Y-58690000D03*
D13*
X127192500Y-59690000D03*
X127192500Y-60340000D03*
X127192500Y-60990000D03*
X127192500Y-58390000D03*
X127192500Y-59040000D03*
D12*
X124492500Y-60690000D03*
%TD*%
D14*
%TO.C,D1*%
X144780000Y-112140000D03*
X144780000Y-108840000D03*
%TD*%
%TO.C,C5*%
G36*
G01*
X186233750Y-88080000D02*
X187146250Y-88080000D01*
G75*
G02*
X187390000Y-88323750I0J-243750D01*
G01*
X187390000Y-88811250D01*
G75*
G02*
X187146250Y-89055000I-243750J0D01*
G01*
X186233750Y-89055000D01*
G75*
G02*
X185990000Y-88811250I0J243750D01*
G01*
X185990000Y-88323750D01*
G75*
G02*
X186233750Y-88080000I243750J0D01*
G01*
G37*
G36*
G01*
X186233750Y-86205000D02*
X187146250Y-86205000D01*
G75*
G02*
X187390000Y-86448750I0J-243750D01*
G01*
X187390000Y-86936250D01*
G75*
G02*
X187146250Y-87180000I-243750J0D01*
G01*
X186233750Y-87180000D01*
G75*
G02*
X185990000Y-86936250I0J243750D01*
G01*
X185990000Y-86448750D01*
G75*
G02*
X186233750Y-86205000I243750J0D01*
G01*
G37*
%TD*%
%TO.C,C4*%
G36*
G01*
X136703750Y-109670000D02*
X137616250Y-109670000D01*
G75*
G02*
X137860000Y-109913750I0J-243750D01*
G01*
X137860000Y-110401250D01*
G75*
G02*
X137616250Y-110645000I-243750J0D01*
G01*
X136703750Y-110645000D01*
G75*
G02*
X136460000Y-110401250I0J243750D01*
G01*
X136460000Y-109913750D01*
G75*
G02*
X136703750Y-109670000I243750J0D01*
G01*
G37*
G36*
G01*
X136703750Y-107795000D02*
X137616250Y-107795000D01*
G75*
G02*
X137860000Y-108038750I0J-243750D01*
G01*
X137860000Y-108526250D01*
G75*
G02*
X137616250Y-108770000I-243750J0D01*
G01*
X136703750Y-108770000D01*
G75*
G02*
X136460000Y-108526250I0J243750D01*
G01*
X136460000Y-108038750D01*
G75*
G02*
X136703750Y-107795000I243750J0D01*
G01*
G37*
%TD*%
%TO.C,C3*%
G36*
G01*
X138886250Y-95737500D02*
X137973750Y-95737500D01*
G75*
G02*
X137730000Y-95493750I0J243750D01*
G01*
X137730000Y-95006250D01*
G75*
G02*
X137973750Y-94762500I243750J0D01*
G01*
X138886250Y-94762500D01*
G75*
G02*
X139130000Y-95006250I0J-243750D01*
G01*
X139130000Y-95493750D01*
G75*
G02*
X138886250Y-95737500I-243750J0D01*
G01*
G37*
G36*
G01*
X138886250Y-97612500D02*
X137973750Y-97612500D01*
G75*
G02*
X137730000Y-97368750I0J243750D01*
G01*
X137730000Y-96881250D01*
G75*
G02*
X137973750Y-96637500I243750J0D01*
G01*
X138886250Y-96637500D01*
G75*
G02*
X139130000Y-96881250I0J-243750D01*
G01*
X139130000Y-97368750D01*
G75*
G02*
X138886250Y-97612500I-243750J0D01*
G01*
G37*
%TD*%
%TO.C,C2*%
G36*
G01*
X137315000Y-66853750D02*
X137315000Y-67766250D01*
G75*
G02*
X137071250Y-68010000I-243750J0D01*
G01*
X136583750Y-68010000D01*
G75*
G02*
X136340000Y-67766250I0J243750D01*
G01*
X136340000Y-66853750D01*
G75*
G02*
X136583750Y-66610000I243750J0D01*
G01*
X137071250Y-66610000D01*
G75*
G02*
X137315000Y-66853750I0J-243750D01*
G01*
G37*
G36*
G01*
X135440000Y-66853750D02*
X135440000Y-67766250D01*
G75*
G02*
X135196250Y-68010000I-243750J0D01*
G01*
X134708750Y-68010000D01*
G75*
G02*
X134465000Y-67766250I0J243750D01*
G01*
X134465000Y-66853750D01*
G75*
G02*
X134708750Y-66610000I243750J0D01*
G01*
X135196250Y-66610000D01*
G75*
G02*
X135440000Y-66853750I0J-243750D01*
G01*
G37*
%TD*%
%TO.C,C1*%
G36*
G01*
X138886250Y-88117500D02*
X137973750Y-88117500D01*
G75*
G02*
X137730000Y-87873750I0J243750D01*
G01*
X137730000Y-87386250D01*
G75*
G02*
X137973750Y-87142500I243750J0D01*
G01*
X138886250Y-87142500D01*
G75*
G02*
X139130000Y-87386250I0J-243750D01*
G01*
X139130000Y-87873750D01*
G75*
G02*
X138886250Y-88117500I-243750J0D01*
G01*
G37*
G36*
G01*
X138886250Y-89992500D02*
X137973750Y-89992500D01*
G75*
G02*
X137730000Y-89748750I0J243750D01*
G01*
X137730000Y-89261250D01*
G75*
G02*
X137973750Y-89017500I243750J0D01*
G01*
X138886250Y-89017500D01*
G75*
G02*
X139130000Y-89261250I0J-243750D01*
G01*
X139130000Y-89748750D01*
G75*
G02*
X138886250Y-89992500I-243750J0D01*
G01*
G37*
%TD*%
D15*
%TO.C,BZ1*%
X148900000Y-108570000D03*
X148900000Y-115570000D03*
X155900000Y-115570000D03*
X155900000Y-108570000D03*
%TD*%
M02*
