M48
; DRILL file {KiCad (5.1.6)-1} date 11/21/20 17:14:47
; FORMAT={-:-/ absolute / inch / decimal}
; #@! TF.CreationDate,2020-11-21T17:14:47+08:00
; #@! TF.GenerationSoftware,Kicad,Pcbnew,(5.1.6)-1
; #@! TF.FileFunction,Plated,1,2,PTH
FMAT,2
INCH
T1C0.0236
T2C0.0295
T3C0.0300
T4C0.0315
T5C0.0335
T6C0.0394
%
G90
G05
T2
X4.2202Y-5.0436
X4.2702Y-5.0436
X4.3202Y-5.0436
T3
X6.9875Y-2.3448
X6.9875Y-2.9551
X8.0701Y-2.3448
X8.0701Y-2.9551
T4
X7.2288Y-2.3055
X7.3288Y-2.3055
X7.4288Y-2.3055
X7.5288Y-2.3055
X7.6288Y-2.3055
X7.7288Y-2.3055
X7.8288Y-2.3055
X5.4818Y-2.6272
X5.4818Y-2.7272
X5.4818Y-2.8272
X5.4818Y-2.9272
X5.4818Y-3.0272
X5.4818Y-3.1272
X5.4818Y-3.2272
X5.4818Y-3.3272
X5.4818Y-3.4272
X5.4818Y-3.5272
X5.4818Y-3.6272
X5.4818Y-3.7272
X5.4818Y-3.8272
X5.4818Y-3.9272
X5.4818Y-4.0272
X5.4818Y-4.1272
X5.4818Y-4.2272
X5.4818Y-4.3272
X5.4818Y-4.4272
X5.4818Y-4.5272
X6.0818Y-2.6272
X6.0818Y-2.7272
X6.0818Y-2.8272
X6.0818Y-2.9272
X6.0818Y-3.0272
X6.0818Y-3.1272
X6.0818Y-3.2272
X6.0818Y-3.3272
X6.0818Y-3.4272
X6.0818Y-3.5272
X6.0818Y-3.6272
X6.0818Y-3.7272
X6.0818Y-3.8272
X6.0818Y-3.9272
X6.0818Y-4.0272
X6.0818Y-4.1272
X6.0818Y-4.2272
X6.0818Y-4.3272
X6.0818Y-4.4272
X6.0818Y-4.5272
T5
X4.2616Y-2.8614
X4.2616Y-3.0582
T6
X4.7116Y-3.923
X4.7116Y-4.023
X4.7116Y-4.123
X8.7108Y-3.754
X8.7108Y-3.854
X6.357Y-3.9432
T1
G00X4.1415Y-2.822
M15
G01X4.1691Y-2.822
M16
G05
G00X4.1691Y-3.0976
M15
G01X4.1415Y-3.0976
M16
G05
T0
M30
