%TF.GenerationSoftware,KiCad,Pcbnew,(5.1.6)-1*%
%TF.CreationDate,2020-11-21T18:59:45+08:00*%
%TF.ProjectId,Nov_21,4e6f765f-3231-42e6-9b69-6361645f7063,rev?*%
%TF.SameCoordinates,Original*%
%TF.FileFunction,Soldermask,Top*%
%TF.FilePolarity,Negative*%
%FSLAX46Y46*%
G04 Gerber Fmt 4.6, Leading zero omitted, Abs format (unit mm)*
G04 Created by KiCad (PCBNEW (5.1.6)-1) date 2020-11-21 18:59:45*
%MOMM*%
%LPD*%
G01*
G04 APERTURE LIST*
%ADD10C,1.540000*%
%ADD11R,1.320000X0.750000*%
%ADD12R,1.150000X1.600000*%
%ADD13O,1.150000X1.600000*%
%ADD14C,2.100000*%
%ADD15R,1.000000X0.900000*%
%ADD16O,1.800000X1.800000*%
%ADD17R,1.800000X1.800000*%
%ADD18C,1.200000*%
%ADD19C,1.100000*%
%ADD20C,1.624000*%
%ADD21O,1.700000X1.700000*%
%ADD22R,1.700000X1.700000*%
%ADD23R,2.000000X1.300000*%
%ADD24O,2.000000X1.300000*%
%ADD25R,2.000000X1.600000*%
%ADD26C,1.550000*%
%ADD27R,1.450000X0.500000*%
%ADD28R,1.300000X1.000000*%
%ADD29R,2.100000X2.100000*%
G04 APERTURE END LIST*
D10*
%TO.C,RV1*%
X125730000Y-77470000D03*
X128270000Y-80010000D03*
X130810000Y-77470000D03*
%TD*%
D11*
%TO.C,U3*%
X137200000Y-80330000D03*
X137200000Y-81280000D03*
X137200000Y-82230000D03*
X134580000Y-82230000D03*
X134580000Y-81280000D03*
X134580000Y-80330000D03*
%TD*%
%TO.C,U2*%
G36*
G01*
X133170000Y-63960000D02*
X133170000Y-64310000D01*
G75*
G02*
X132995000Y-64485000I-175000J0D01*
G01*
X131295000Y-64485000D01*
G75*
G02*
X131120000Y-64310000I0J175000D01*
G01*
X131120000Y-63960000D01*
G75*
G02*
X131295000Y-63785000I175000J0D01*
G01*
X132995000Y-63785000D01*
G75*
G02*
X133170000Y-63960000I0J-175000D01*
G01*
G37*
G36*
G01*
X133170000Y-62690000D02*
X133170000Y-63040000D01*
G75*
G02*
X132995000Y-63215000I-175000J0D01*
G01*
X131295000Y-63215000D01*
G75*
G02*
X131120000Y-63040000I0J175000D01*
G01*
X131120000Y-62690000D01*
G75*
G02*
X131295000Y-62515000I175000J0D01*
G01*
X132995000Y-62515000D01*
G75*
G02*
X133170000Y-62690000I0J-175000D01*
G01*
G37*
G36*
G01*
X133170000Y-61420000D02*
X133170000Y-61770000D01*
G75*
G02*
X132995000Y-61945000I-175000J0D01*
G01*
X131295000Y-61945000D01*
G75*
G02*
X131120000Y-61770000I0J175000D01*
G01*
X131120000Y-61420000D01*
G75*
G02*
X131295000Y-61245000I175000J0D01*
G01*
X132995000Y-61245000D01*
G75*
G02*
X133170000Y-61420000I0J-175000D01*
G01*
G37*
G36*
G01*
X133170000Y-60150000D02*
X133170000Y-60500000D01*
G75*
G02*
X132995000Y-60675000I-175000J0D01*
G01*
X131295000Y-60675000D01*
G75*
G02*
X131120000Y-60500000I0J175000D01*
G01*
X131120000Y-60150000D01*
G75*
G02*
X131295000Y-59975000I175000J0D01*
G01*
X132995000Y-59975000D01*
G75*
G02*
X133170000Y-60150000I0J-175000D01*
G01*
G37*
G36*
G01*
X133170000Y-58880000D02*
X133170000Y-59230000D01*
G75*
G02*
X132995000Y-59405000I-175000J0D01*
G01*
X131295000Y-59405000D01*
G75*
G02*
X131120000Y-59230000I0J175000D01*
G01*
X131120000Y-58880000D01*
G75*
G02*
X131295000Y-58705000I175000J0D01*
G01*
X132995000Y-58705000D01*
G75*
G02*
X133170000Y-58880000I0J-175000D01*
G01*
G37*
G36*
G01*
X133170000Y-57610000D02*
X133170000Y-57960000D01*
G75*
G02*
X132995000Y-58135000I-175000J0D01*
G01*
X131295000Y-58135000D01*
G75*
G02*
X131120000Y-57960000I0J175000D01*
G01*
X131120000Y-57610000D01*
G75*
G02*
X131295000Y-57435000I175000J0D01*
G01*
X132995000Y-57435000D01*
G75*
G02*
X133170000Y-57610000I0J-175000D01*
G01*
G37*
G36*
G01*
X133170000Y-56340000D02*
X133170000Y-56690000D01*
G75*
G02*
X132995000Y-56865000I-175000J0D01*
G01*
X131295000Y-56865000D01*
G75*
G02*
X131120000Y-56690000I0J175000D01*
G01*
X131120000Y-56340000D01*
G75*
G02*
X131295000Y-56165000I175000J0D01*
G01*
X132995000Y-56165000D01*
G75*
G02*
X133170000Y-56340000I0J-175000D01*
G01*
G37*
G36*
G01*
X133170000Y-55070000D02*
X133170000Y-55420000D01*
G75*
G02*
X132995000Y-55595000I-175000J0D01*
G01*
X131295000Y-55595000D01*
G75*
G02*
X131120000Y-55420000I0J175000D01*
G01*
X131120000Y-55070000D01*
G75*
G02*
X131295000Y-54895000I175000J0D01*
G01*
X132995000Y-54895000D01*
G75*
G02*
X133170000Y-55070000I0J-175000D01*
G01*
G37*
G36*
G01*
X138120000Y-55070000D02*
X138120000Y-55420000D01*
G75*
G02*
X137945000Y-55595000I-175000J0D01*
G01*
X136245000Y-55595000D01*
G75*
G02*
X136070000Y-55420000I0J175000D01*
G01*
X136070000Y-55070000D01*
G75*
G02*
X136245000Y-54895000I175000J0D01*
G01*
X137945000Y-54895000D01*
G75*
G02*
X138120000Y-55070000I0J-175000D01*
G01*
G37*
G36*
G01*
X138120000Y-56340000D02*
X138120000Y-56690000D01*
G75*
G02*
X137945000Y-56865000I-175000J0D01*
G01*
X136245000Y-56865000D01*
G75*
G02*
X136070000Y-56690000I0J175000D01*
G01*
X136070000Y-56340000D01*
G75*
G02*
X136245000Y-56165000I175000J0D01*
G01*
X137945000Y-56165000D01*
G75*
G02*
X138120000Y-56340000I0J-175000D01*
G01*
G37*
G36*
G01*
X138120000Y-57610000D02*
X138120000Y-57960000D01*
G75*
G02*
X137945000Y-58135000I-175000J0D01*
G01*
X136245000Y-58135000D01*
G75*
G02*
X136070000Y-57960000I0J175000D01*
G01*
X136070000Y-57610000D01*
G75*
G02*
X136245000Y-57435000I175000J0D01*
G01*
X137945000Y-57435000D01*
G75*
G02*
X138120000Y-57610000I0J-175000D01*
G01*
G37*
G36*
G01*
X138120000Y-58880000D02*
X138120000Y-59230000D01*
G75*
G02*
X137945000Y-59405000I-175000J0D01*
G01*
X136245000Y-59405000D01*
G75*
G02*
X136070000Y-59230000I0J175000D01*
G01*
X136070000Y-58880000D01*
G75*
G02*
X136245000Y-58705000I175000J0D01*
G01*
X137945000Y-58705000D01*
G75*
G02*
X138120000Y-58880000I0J-175000D01*
G01*
G37*
G36*
G01*
X138120000Y-60150000D02*
X138120000Y-60500000D01*
G75*
G02*
X137945000Y-60675000I-175000J0D01*
G01*
X136245000Y-60675000D01*
G75*
G02*
X136070000Y-60500000I0J175000D01*
G01*
X136070000Y-60150000D01*
G75*
G02*
X136245000Y-59975000I175000J0D01*
G01*
X137945000Y-59975000D01*
G75*
G02*
X138120000Y-60150000I0J-175000D01*
G01*
G37*
G36*
G01*
X138120000Y-61420000D02*
X138120000Y-61770000D01*
G75*
G02*
X137945000Y-61945000I-175000J0D01*
G01*
X136245000Y-61945000D01*
G75*
G02*
X136070000Y-61770000I0J175000D01*
G01*
X136070000Y-61420000D01*
G75*
G02*
X136245000Y-61245000I175000J0D01*
G01*
X137945000Y-61245000D01*
G75*
G02*
X138120000Y-61420000I0J-175000D01*
G01*
G37*
G36*
G01*
X138120000Y-62690000D02*
X138120000Y-63040000D01*
G75*
G02*
X137945000Y-63215000I-175000J0D01*
G01*
X136245000Y-63215000D01*
G75*
G02*
X136070000Y-63040000I0J175000D01*
G01*
X136070000Y-62690000D01*
G75*
G02*
X136245000Y-62515000I175000J0D01*
G01*
X137945000Y-62515000D01*
G75*
G02*
X138120000Y-62690000I0J-175000D01*
G01*
G37*
G36*
G01*
X138120000Y-63960000D02*
X138120000Y-64310000D01*
G75*
G02*
X137945000Y-64485000I-175000J0D01*
G01*
X136245000Y-64485000D01*
G75*
G02*
X136070000Y-64310000I0J175000D01*
G01*
X136070000Y-63960000D01*
G75*
G02*
X136245000Y-63785000I175000J0D01*
G01*
X137945000Y-63785000D01*
G75*
G02*
X138120000Y-63960000I0J-175000D01*
G01*
G37*
%TD*%
D12*
%TO.C,U1*%
X125730000Y-97790000D03*
D13*
X128270000Y-97790000D03*
X127000000Y-97790000D03*
%TD*%
D14*
%TO.C,TP1*%
X133350000Y-105410000D03*
%TD*%
%TO.C,R25*%
G36*
G01*
X169642500Y-102081250D02*
X169642500Y-101118750D01*
G75*
G02*
X169911250Y-100850000I268750J0D01*
G01*
X170448750Y-100850000D01*
G75*
G02*
X170717500Y-101118750I0J-268750D01*
G01*
X170717500Y-102081250D01*
G75*
G02*
X170448750Y-102350000I-268750J0D01*
G01*
X169911250Y-102350000D01*
G75*
G02*
X169642500Y-102081250I0J268750D01*
G01*
G37*
G36*
G01*
X167767500Y-102081250D02*
X167767500Y-101118750D01*
G75*
G02*
X168036250Y-100850000I268750J0D01*
G01*
X168573750Y-100850000D01*
G75*
G02*
X168842500Y-101118750I0J-268750D01*
G01*
X168842500Y-102081250D01*
G75*
G02*
X168573750Y-102350000I-268750J0D01*
G01*
X168036250Y-102350000D01*
G75*
G02*
X167767500Y-102081250I0J268750D01*
G01*
G37*
%TD*%
%TO.C,R24*%
G36*
G01*
X175660000Y-79221250D02*
X175660000Y-78258750D01*
G75*
G02*
X175928750Y-77990000I268750J0D01*
G01*
X176466250Y-77990000D01*
G75*
G02*
X176735000Y-78258750I0J-268750D01*
G01*
X176735000Y-79221250D01*
G75*
G02*
X176466250Y-79490000I-268750J0D01*
G01*
X175928750Y-79490000D01*
G75*
G02*
X175660000Y-79221250I0J268750D01*
G01*
G37*
G36*
G01*
X173785000Y-79221250D02*
X173785000Y-78258750D01*
G75*
G02*
X174053750Y-77990000I268750J0D01*
G01*
X174591250Y-77990000D01*
G75*
G02*
X174860000Y-78258750I0J-268750D01*
G01*
X174860000Y-79221250D01*
G75*
G02*
X174591250Y-79490000I-268750J0D01*
G01*
X174053750Y-79490000D01*
G75*
G02*
X173785000Y-79221250I0J268750D01*
G01*
G37*
%TD*%
%TO.C,R23*%
G36*
G01*
X174860000Y-83338750D02*
X174860000Y-84301250D01*
G75*
G02*
X174591250Y-84570000I-268750J0D01*
G01*
X174053750Y-84570000D01*
G75*
G02*
X173785000Y-84301250I0J268750D01*
G01*
X173785000Y-83338750D01*
G75*
G02*
X174053750Y-83070000I268750J0D01*
G01*
X174591250Y-83070000D01*
G75*
G02*
X174860000Y-83338750I0J-268750D01*
G01*
G37*
G36*
G01*
X176735000Y-83338750D02*
X176735000Y-84301250D01*
G75*
G02*
X176466250Y-84570000I-268750J0D01*
G01*
X175928750Y-84570000D01*
G75*
G02*
X175660000Y-84301250I0J268750D01*
G01*
X175660000Y-83338750D01*
G75*
G02*
X175928750Y-83070000I268750J0D01*
G01*
X176466250Y-83070000D01*
G75*
G02*
X176735000Y-83338750I0J-268750D01*
G01*
G37*
%TD*%
%TO.C,R22*%
G36*
G01*
X169642500Y-99541250D02*
X169642500Y-98578750D01*
G75*
G02*
X169911250Y-98310000I268750J0D01*
G01*
X170448750Y-98310000D01*
G75*
G02*
X170717500Y-98578750I0J-268750D01*
G01*
X170717500Y-99541250D01*
G75*
G02*
X170448750Y-99810000I-268750J0D01*
G01*
X169911250Y-99810000D01*
G75*
G02*
X169642500Y-99541250I0J268750D01*
G01*
G37*
G36*
G01*
X167767500Y-99541250D02*
X167767500Y-98578750D01*
G75*
G02*
X168036250Y-98310000I268750J0D01*
G01*
X168573750Y-98310000D01*
G75*
G02*
X168842500Y-98578750I0J-268750D01*
G01*
X168842500Y-99541250D01*
G75*
G02*
X168573750Y-99810000I-268750J0D01*
G01*
X168036250Y-99810000D01*
G75*
G02*
X167767500Y-99541250I0J268750D01*
G01*
G37*
%TD*%
%TO.C,R21*%
G36*
G01*
X169642500Y-97001250D02*
X169642500Y-96038750D01*
G75*
G02*
X169911250Y-95770000I268750J0D01*
G01*
X170448750Y-95770000D01*
G75*
G02*
X170717500Y-96038750I0J-268750D01*
G01*
X170717500Y-97001250D01*
G75*
G02*
X170448750Y-97270000I-268750J0D01*
G01*
X169911250Y-97270000D01*
G75*
G02*
X169642500Y-97001250I0J268750D01*
G01*
G37*
G36*
G01*
X167767500Y-97001250D02*
X167767500Y-96038750D01*
G75*
G02*
X168036250Y-95770000I268750J0D01*
G01*
X168573750Y-95770000D01*
G75*
G02*
X168842500Y-96038750I0J-268750D01*
G01*
X168842500Y-97001250D01*
G75*
G02*
X168573750Y-97270000I-268750J0D01*
G01*
X168036250Y-97270000D01*
G75*
G02*
X167767500Y-97001250I0J268750D01*
G01*
G37*
%TD*%
%TO.C,R20*%
G36*
G01*
X169642500Y-94461250D02*
X169642500Y-93498750D01*
G75*
G02*
X169911250Y-93230000I268750J0D01*
G01*
X170448750Y-93230000D01*
G75*
G02*
X170717500Y-93498750I0J-268750D01*
G01*
X170717500Y-94461250D01*
G75*
G02*
X170448750Y-94730000I-268750J0D01*
G01*
X169911250Y-94730000D01*
G75*
G02*
X169642500Y-94461250I0J268750D01*
G01*
G37*
G36*
G01*
X167767500Y-94461250D02*
X167767500Y-93498750D01*
G75*
G02*
X168036250Y-93230000I268750J0D01*
G01*
X168573750Y-93230000D01*
G75*
G02*
X168842500Y-93498750I0J-268750D01*
G01*
X168842500Y-94461250D01*
G75*
G02*
X168573750Y-94730000I-268750J0D01*
G01*
X168036250Y-94730000D01*
G75*
G02*
X167767500Y-94461250I0J268750D01*
G01*
G37*
%TD*%
%TO.C,R19*%
G36*
G01*
X169642500Y-91921250D02*
X169642500Y-90958750D01*
G75*
G02*
X169911250Y-90690000I268750J0D01*
G01*
X170448750Y-90690000D01*
G75*
G02*
X170717500Y-90958750I0J-268750D01*
G01*
X170717500Y-91921250D01*
G75*
G02*
X170448750Y-92190000I-268750J0D01*
G01*
X169911250Y-92190000D01*
G75*
G02*
X169642500Y-91921250I0J268750D01*
G01*
G37*
G36*
G01*
X167767500Y-91921250D02*
X167767500Y-90958750D01*
G75*
G02*
X168036250Y-90690000I268750J0D01*
G01*
X168573750Y-90690000D01*
G75*
G02*
X168842500Y-90958750I0J-268750D01*
G01*
X168842500Y-91921250D01*
G75*
G02*
X168573750Y-92190000I-268750J0D01*
G01*
X168036250Y-92190000D01*
G75*
G02*
X167767500Y-91921250I0J268750D01*
G01*
G37*
%TD*%
%TO.C,R18*%
G36*
G01*
X169642500Y-89381250D02*
X169642500Y-88418750D01*
G75*
G02*
X169911250Y-88150000I268750J0D01*
G01*
X170448750Y-88150000D01*
G75*
G02*
X170717500Y-88418750I0J-268750D01*
G01*
X170717500Y-89381250D01*
G75*
G02*
X170448750Y-89650000I-268750J0D01*
G01*
X169911250Y-89650000D01*
G75*
G02*
X169642500Y-89381250I0J268750D01*
G01*
G37*
G36*
G01*
X167767500Y-89381250D02*
X167767500Y-88418750D01*
G75*
G02*
X168036250Y-88150000I268750J0D01*
G01*
X168573750Y-88150000D01*
G75*
G02*
X168842500Y-88418750I0J-268750D01*
G01*
X168842500Y-89381250D01*
G75*
G02*
X168573750Y-89650000I-268750J0D01*
G01*
X168036250Y-89650000D01*
G75*
G02*
X167767500Y-89381250I0J268750D01*
G01*
G37*
%TD*%
%TO.C,R17*%
G36*
G01*
X169642500Y-86841250D02*
X169642500Y-85878750D01*
G75*
G02*
X169911250Y-85610000I268750J0D01*
G01*
X170448750Y-85610000D01*
G75*
G02*
X170717500Y-85878750I0J-268750D01*
G01*
X170717500Y-86841250D01*
G75*
G02*
X170448750Y-87110000I-268750J0D01*
G01*
X169911250Y-87110000D01*
G75*
G02*
X169642500Y-86841250I0J268750D01*
G01*
G37*
G36*
G01*
X167767500Y-86841250D02*
X167767500Y-85878750D01*
G75*
G02*
X168036250Y-85610000I268750J0D01*
G01*
X168573750Y-85610000D01*
G75*
G02*
X168842500Y-85878750I0J-268750D01*
G01*
X168842500Y-86841250D01*
G75*
G02*
X168573750Y-87110000I-268750J0D01*
G01*
X168036250Y-87110000D01*
G75*
G02*
X167767500Y-86841250I0J268750D01*
G01*
G37*
%TD*%
%TO.C,R16*%
G36*
G01*
X169642500Y-84301250D02*
X169642500Y-83338750D01*
G75*
G02*
X169911250Y-83070000I268750J0D01*
G01*
X170448750Y-83070000D01*
G75*
G02*
X170717500Y-83338750I0J-268750D01*
G01*
X170717500Y-84301250D01*
G75*
G02*
X170448750Y-84570000I-268750J0D01*
G01*
X169911250Y-84570000D01*
G75*
G02*
X169642500Y-84301250I0J268750D01*
G01*
G37*
G36*
G01*
X167767500Y-84301250D02*
X167767500Y-83338750D01*
G75*
G02*
X168036250Y-83070000I268750J0D01*
G01*
X168573750Y-83070000D01*
G75*
G02*
X168842500Y-83338750I0J-268750D01*
G01*
X168842500Y-84301250D01*
G75*
G02*
X168573750Y-84570000I-268750J0D01*
G01*
X168036250Y-84570000D01*
G75*
G02*
X167767500Y-84301250I0J268750D01*
G01*
G37*
%TD*%
%TO.C,R15*%
G36*
G01*
X169642500Y-81761250D02*
X169642500Y-80798750D01*
G75*
G02*
X169911250Y-80530000I268750J0D01*
G01*
X170448750Y-80530000D01*
G75*
G02*
X170717500Y-80798750I0J-268750D01*
G01*
X170717500Y-81761250D01*
G75*
G02*
X170448750Y-82030000I-268750J0D01*
G01*
X169911250Y-82030000D01*
G75*
G02*
X169642500Y-81761250I0J268750D01*
G01*
G37*
G36*
G01*
X167767500Y-81761250D02*
X167767500Y-80798750D01*
G75*
G02*
X168036250Y-80530000I268750J0D01*
G01*
X168573750Y-80530000D01*
G75*
G02*
X168842500Y-80798750I0J-268750D01*
G01*
X168842500Y-81761250D01*
G75*
G02*
X168573750Y-82030000I-268750J0D01*
G01*
X168036250Y-82030000D01*
G75*
G02*
X167767500Y-81761250I0J268750D01*
G01*
G37*
%TD*%
%TO.C,R14*%
G36*
G01*
X169642500Y-79221250D02*
X169642500Y-78258750D01*
G75*
G02*
X169911250Y-77990000I268750J0D01*
G01*
X170448750Y-77990000D01*
G75*
G02*
X170717500Y-78258750I0J-268750D01*
G01*
X170717500Y-79221250D01*
G75*
G02*
X170448750Y-79490000I-268750J0D01*
G01*
X169911250Y-79490000D01*
G75*
G02*
X169642500Y-79221250I0J268750D01*
G01*
G37*
G36*
G01*
X167767500Y-79221250D02*
X167767500Y-78258750D01*
G75*
G02*
X168036250Y-77990000I268750J0D01*
G01*
X168573750Y-77990000D01*
G75*
G02*
X168842500Y-78258750I0J-268750D01*
G01*
X168842500Y-79221250D01*
G75*
G02*
X168573750Y-79490000I-268750J0D01*
G01*
X168036250Y-79490000D01*
G75*
G02*
X167767500Y-79221250I0J268750D01*
G01*
G37*
%TD*%
%TO.C,R13*%
G36*
G01*
X163430000Y-80798750D02*
X163430000Y-81761250D01*
G75*
G02*
X163161250Y-82030000I-268750J0D01*
G01*
X162623750Y-82030000D01*
G75*
G02*
X162355000Y-81761250I0J268750D01*
G01*
X162355000Y-80798750D01*
G75*
G02*
X162623750Y-80530000I268750J0D01*
G01*
X163161250Y-80530000D01*
G75*
G02*
X163430000Y-80798750I0J-268750D01*
G01*
G37*
G36*
G01*
X165305000Y-80798750D02*
X165305000Y-81761250D01*
G75*
G02*
X165036250Y-82030000I-268750J0D01*
G01*
X164498750Y-82030000D01*
G75*
G02*
X164230000Y-81761250I0J268750D01*
G01*
X164230000Y-80798750D01*
G75*
G02*
X164498750Y-80530000I268750J0D01*
G01*
X165036250Y-80530000D01*
G75*
G02*
X165305000Y-80798750I0J-268750D01*
G01*
G37*
%TD*%
%TO.C,R12*%
G36*
G01*
X163430000Y-98578750D02*
X163430000Y-99541250D01*
G75*
G02*
X163161250Y-99810000I-268750J0D01*
G01*
X162623750Y-99810000D01*
G75*
G02*
X162355000Y-99541250I0J268750D01*
G01*
X162355000Y-98578750D01*
G75*
G02*
X162623750Y-98310000I268750J0D01*
G01*
X163161250Y-98310000D01*
G75*
G02*
X163430000Y-98578750I0J-268750D01*
G01*
G37*
G36*
G01*
X165305000Y-98578750D02*
X165305000Y-99541250D01*
G75*
G02*
X165036250Y-99810000I-268750J0D01*
G01*
X164498750Y-99810000D01*
G75*
G02*
X164230000Y-99541250I0J268750D01*
G01*
X164230000Y-98578750D01*
G75*
G02*
X164498750Y-98310000I268750J0D01*
G01*
X165036250Y-98310000D01*
G75*
G02*
X165305000Y-98578750I0J-268750D01*
G01*
G37*
%TD*%
%TO.C,R11*%
G36*
G01*
X163430000Y-96038750D02*
X163430000Y-97001250D01*
G75*
G02*
X163161250Y-97270000I-268750J0D01*
G01*
X162623750Y-97270000D01*
G75*
G02*
X162355000Y-97001250I0J268750D01*
G01*
X162355000Y-96038750D01*
G75*
G02*
X162623750Y-95770000I268750J0D01*
G01*
X163161250Y-95770000D01*
G75*
G02*
X163430000Y-96038750I0J-268750D01*
G01*
G37*
G36*
G01*
X165305000Y-96038750D02*
X165305000Y-97001250D01*
G75*
G02*
X165036250Y-97270000I-268750J0D01*
G01*
X164498750Y-97270000D01*
G75*
G02*
X164230000Y-97001250I0J268750D01*
G01*
X164230000Y-96038750D01*
G75*
G02*
X164498750Y-95770000I268750J0D01*
G01*
X165036250Y-95770000D01*
G75*
G02*
X165305000Y-96038750I0J-268750D01*
G01*
G37*
%TD*%
%TO.C,R10*%
G36*
G01*
X163430000Y-93498750D02*
X163430000Y-94461250D01*
G75*
G02*
X163161250Y-94730000I-268750J0D01*
G01*
X162623750Y-94730000D01*
G75*
G02*
X162355000Y-94461250I0J268750D01*
G01*
X162355000Y-93498750D01*
G75*
G02*
X162623750Y-93230000I268750J0D01*
G01*
X163161250Y-93230000D01*
G75*
G02*
X163430000Y-93498750I0J-268750D01*
G01*
G37*
G36*
G01*
X165305000Y-93498750D02*
X165305000Y-94461250D01*
G75*
G02*
X165036250Y-94730000I-268750J0D01*
G01*
X164498750Y-94730000D01*
G75*
G02*
X164230000Y-94461250I0J268750D01*
G01*
X164230000Y-93498750D01*
G75*
G02*
X164498750Y-93230000I268750J0D01*
G01*
X165036250Y-93230000D01*
G75*
G02*
X165305000Y-93498750I0J-268750D01*
G01*
G37*
%TD*%
%TO.C,R9*%
G36*
G01*
X163430000Y-88418750D02*
X163430000Y-89381250D01*
G75*
G02*
X163161250Y-89650000I-268750J0D01*
G01*
X162623750Y-89650000D01*
G75*
G02*
X162355000Y-89381250I0J268750D01*
G01*
X162355000Y-88418750D01*
G75*
G02*
X162623750Y-88150000I268750J0D01*
G01*
X163161250Y-88150000D01*
G75*
G02*
X163430000Y-88418750I0J-268750D01*
G01*
G37*
G36*
G01*
X165305000Y-88418750D02*
X165305000Y-89381250D01*
G75*
G02*
X165036250Y-89650000I-268750J0D01*
G01*
X164498750Y-89650000D01*
G75*
G02*
X164230000Y-89381250I0J268750D01*
G01*
X164230000Y-88418750D01*
G75*
G02*
X164498750Y-88150000I268750J0D01*
G01*
X165036250Y-88150000D01*
G75*
G02*
X165305000Y-88418750I0J-268750D01*
G01*
G37*
%TD*%
%TO.C,R8*%
G36*
G01*
X163430000Y-85878750D02*
X163430000Y-86841250D01*
G75*
G02*
X163161250Y-87110000I-268750J0D01*
G01*
X162623750Y-87110000D01*
G75*
G02*
X162355000Y-86841250I0J268750D01*
G01*
X162355000Y-85878750D01*
G75*
G02*
X162623750Y-85610000I268750J0D01*
G01*
X163161250Y-85610000D01*
G75*
G02*
X163430000Y-85878750I0J-268750D01*
G01*
G37*
G36*
G01*
X165305000Y-85878750D02*
X165305000Y-86841250D01*
G75*
G02*
X165036250Y-87110000I-268750J0D01*
G01*
X164498750Y-87110000D01*
G75*
G02*
X164230000Y-86841250I0J268750D01*
G01*
X164230000Y-85878750D01*
G75*
G02*
X164498750Y-85610000I268750J0D01*
G01*
X165036250Y-85610000D01*
G75*
G02*
X165305000Y-85878750I0J-268750D01*
G01*
G37*
%TD*%
%TO.C,R7*%
G36*
G01*
X163430000Y-83338750D02*
X163430000Y-84301250D01*
G75*
G02*
X163161250Y-84570000I-268750J0D01*
G01*
X162623750Y-84570000D01*
G75*
G02*
X162355000Y-84301250I0J268750D01*
G01*
X162355000Y-83338750D01*
G75*
G02*
X162623750Y-83070000I268750J0D01*
G01*
X163161250Y-83070000D01*
G75*
G02*
X163430000Y-83338750I0J-268750D01*
G01*
G37*
G36*
G01*
X165305000Y-83338750D02*
X165305000Y-84301250D01*
G75*
G02*
X165036250Y-84570000I-268750J0D01*
G01*
X164498750Y-84570000D01*
G75*
G02*
X164230000Y-84301250I0J268750D01*
G01*
X164230000Y-83338750D01*
G75*
G02*
X164498750Y-83070000I268750J0D01*
G01*
X165036250Y-83070000D01*
G75*
G02*
X165305000Y-83338750I0J-268750D01*
G01*
G37*
%TD*%
%TO.C,R6*%
G36*
G01*
X163430000Y-101118750D02*
X163430000Y-102081250D01*
G75*
G02*
X163161250Y-102350000I-268750J0D01*
G01*
X162623750Y-102350000D01*
G75*
G02*
X162355000Y-102081250I0J268750D01*
G01*
X162355000Y-101118750D01*
G75*
G02*
X162623750Y-100850000I268750J0D01*
G01*
X163161250Y-100850000D01*
G75*
G02*
X163430000Y-101118750I0J-268750D01*
G01*
G37*
G36*
G01*
X165305000Y-101118750D02*
X165305000Y-102081250D01*
G75*
G02*
X165036250Y-102350000I-268750J0D01*
G01*
X164498750Y-102350000D01*
G75*
G02*
X164230000Y-102081250I0J268750D01*
G01*
X164230000Y-101118750D01*
G75*
G02*
X164498750Y-100850000I268750J0D01*
G01*
X165036250Y-100850000D01*
G75*
G02*
X165305000Y-101118750I0J-268750D01*
G01*
G37*
%TD*%
%TO.C,R5*%
G36*
G01*
X163430000Y-90958750D02*
X163430000Y-91921250D01*
G75*
G02*
X163161250Y-92190000I-268750J0D01*
G01*
X162623750Y-92190000D01*
G75*
G02*
X162355000Y-91921250I0J268750D01*
G01*
X162355000Y-90958750D01*
G75*
G02*
X162623750Y-90690000I268750J0D01*
G01*
X163161250Y-90690000D01*
G75*
G02*
X163430000Y-90958750I0J-268750D01*
G01*
G37*
G36*
G01*
X165305000Y-90958750D02*
X165305000Y-91921250D01*
G75*
G02*
X165036250Y-92190000I-268750J0D01*
G01*
X164498750Y-92190000D01*
G75*
G02*
X164230000Y-91921250I0J268750D01*
G01*
X164230000Y-90958750D01*
G75*
G02*
X164498750Y-90690000I268750J0D01*
G01*
X165036250Y-90690000D01*
G75*
G02*
X165305000Y-90958750I0J-268750D01*
G01*
G37*
%TD*%
%TO.C,R4*%
G36*
G01*
X163430000Y-78258750D02*
X163430000Y-79221250D01*
G75*
G02*
X163161250Y-79490000I-268750J0D01*
G01*
X162623750Y-79490000D01*
G75*
G02*
X162355000Y-79221250I0J268750D01*
G01*
X162355000Y-78258750D01*
G75*
G02*
X162623750Y-77990000I268750J0D01*
G01*
X163161250Y-77990000D01*
G75*
G02*
X163430000Y-78258750I0J-268750D01*
G01*
G37*
G36*
G01*
X165305000Y-78258750D02*
X165305000Y-79221250D01*
G75*
G02*
X165036250Y-79490000I-268750J0D01*
G01*
X164498750Y-79490000D01*
G75*
G02*
X164230000Y-79221250I0J268750D01*
G01*
X164230000Y-78258750D01*
G75*
G02*
X164498750Y-77990000I268750J0D01*
G01*
X165036250Y-77990000D01*
G75*
G02*
X165305000Y-78258750I0J-268750D01*
G01*
G37*
%TD*%
%TO.C,R3*%
G36*
G01*
X137641250Y-104677500D02*
X136678750Y-104677500D01*
G75*
G02*
X136410000Y-104408750I0J268750D01*
G01*
X136410000Y-103871250D01*
G75*
G02*
X136678750Y-103602500I268750J0D01*
G01*
X137641250Y-103602500D01*
G75*
G02*
X137910000Y-103871250I0J-268750D01*
G01*
X137910000Y-104408750D01*
G75*
G02*
X137641250Y-104677500I-268750J0D01*
G01*
G37*
G36*
G01*
X137641250Y-106552500D02*
X136678750Y-106552500D01*
G75*
G02*
X136410000Y-106283750I0J268750D01*
G01*
X136410000Y-105746250D01*
G75*
G02*
X136678750Y-105477500I268750J0D01*
G01*
X137641250Y-105477500D01*
G75*
G02*
X137910000Y-105746250I0J-268750D01*
G01*
X137910000Y-106283750D01*
G75*
G02*
X137641250Y-106552500I-268750J0D01*
G01*
G37*
%TD*%
%TO.C,R2*%
G36*
G01*
X130021250Y-104677500D02*
X129058750Y-104677500D01*
G75*
G02*
X128790000Y-104408750I0J268750D01*
G01*
X128790000Y-103871250D01*
G75*
G02*
X129058750Y-103602500I268750J0D01*
G01*
X130021250Y-103602500D01*
G75*
G02*
X130290000Y-103871250I0J-268750D01*
G01*
X130290000Y-104408750D01*
G75*
G02*
X130021250Y-104677500I-268750J0D01*
G01*
G37*
G36*
G01*
X130021250Y-106552500D02*
X129058750Y-106552500D01*
G75*
G02*
X128790000Y-106283750I0J268750D01*
G01*
X128790000Y-105746250D01*
G75*
G02*
X129058750Y-105477500I268750J0D01*
G01*
X130021250Y-105477500D01*
G75*
G02*
X130290000Y-105746250I0J-268750D01*
G01*
X130290000Y-106283750D01*
G75*
G02*
X130021250Y-106552500I-268750J0D01*
G01*
G37*
%TD*%
%TO.C,R1*%
G36*
G01*
X135408750Y-101062500D02*
X136371250Y-101062500D01*
G75*
G02*
X136640000Y-101331250I0J-268750D01*
G01*
X136640000Y-101868750D01*
G75*
G02*
X136371250Y-102137500I-268750J0D01*
G01*
X135408750Y-102137500D01*
G75*
G02*
X135140000Y-101868750I0J268750D01*
G01*
X135140000Y-101331250D01*
G75*
G02*
X135408750Y-101062500I268750J0D01*
G01*
G37*
G36*
G01*
X135408750Y-99187500D02*
X136371250Y-99187500D01*
G75*
G02*
X136640000Y-99456250I0J-268750D01*
G01*
X136640000Y-99993750D01*
G75*
G02*
X136371250Y-100262500I-268750J0D01*
G01*
X135408750Y-100262500D01*
G75*
G02*
X135140000Y-99993750I0J268750D01*
G01*
X135140000Y-99456250D01*
G75*
G02*
X135408750Y-99187500I268750J0D01*
G01*
G37*
%TD*%
D15*
%TO.C,Q1*%
X139430000Y-114300000D03*
X137430000Y-115250000D03*
X137430000Y-113350000D03*
%TD*%
D16*
%TO.C,J6*%
X191770000Y-82550000D03*
D17*
X191770000Y-80010000D03*
%TD*%
%TO.C,J5*%
G36*
G01*
X185510440Y-77538320D02*
X185510440Y-77188320D01*
G75*
G02*
X185685440Y-77013320I175000J0D01*
G01*
X187185440Y-77013320D01*
G75*
G02*
X187360440Y-77188320I0J-175000D01*
G01*
X187360440Y-77538320D01*
G75*
G02*
X187185440Y-77713320I-175000J0D01*
G01*
X185685440Y-77713320D01*
G75*
G02*
X185510440Y-77538320I0J175000D01*
G01*
G37*
G36*
G01*
X185510440Y-78808320D02*
X185510440Y-78458320D01*
G75*
G02*
X185685440Y-78283320I175000J0D01*
G01*
X187185440Y-78283320D01*
G75*
G02*
X187360440Y-78458320I0J-175000D01*
G01*
X187360440Y-78808320D01*
G75*
G02*
X187185440Y-78983320I-175000J0D01*
G01*
X185685440Y-78983320D01*
G75*
G02*
X185510440Y-78808320I0J175000D01*
G01*
G37*
G36*
G01*
X185510440Y-80078320D02*
X185510440Y-79728320D01*
G75*
G02*
X185685440Y-79553320I175000J0D01*
G01*
X187185440Y-79553320D01*
G75*
G02*
X187360440Y-79728320I0J-175000D01*
G01*
X187360440Y-80078320D01*
G75*
G02*
X187185440Y-80253320I-175000J0D01*
G01*
X185685440Y-80253320D01*
G75*
G02*
X185510440Y-80078320I0J175000D01*
G01*
G37*
G36*
G01*
X185510440Y-81348320D02*
X185510440Y-80998320D01*
G75*
G02*
X185685440Y-80823320I175000J0D01*
G01*
X187185440Y-80823320D01*
G75*
G02*
X187360440Y-80998320I0J-175000D01*
G01*
X187360440Y-81348320D01*
G75*
G02*
X187185440Y-81523320I-175000J0D01*
G01*
X185685440Y-81523320D01*
G75*
G02*
X185510440Y-81348320I0J175000D01*
G01*
G37*
G36*
G01*
X180360440Y-81348320D02*
X180360440Y-80998320D01*
G75*
G02*
X180535440Y-80823320I175000J0D01*
G01*
X182035440Y-80823320D01*
G75*
G02*
X182210440Y-80998320I0J-175000D01*
G01*
X182210440Y-81348320D01*
G75*
G02*
X182035440Y-81523320I-175000J0D01*
G01*
X180535440Y-81523320D01*
G75*
G02*
X180360440Y-81348320I0J175000D01*
G01*
G37*
G36*
G01*
X180360440Y-80078320D02*
X180360440Y-79728320D01*
G75*
G02*
X180535440Y-79553320I175000J0D01*
G01*
X182035440Y-79553320D01*
G75*
G02*
X182210440Y-79728320I0J-175000D01*
G01*
X182210440Y-80078320D01*
G75*
G02*
X182035440Y-80253320I-175000J0D01*
G01*
X180535440Y-80253320D01*
G75*
G02*
X180360440Y-80078320I0J175000D01*
G01*
G37*
G36*
G01*
X180360440Y-78808320D02*
X180360440Y-78458320D01*
G75*
G02*
X180535440Y-78283320I175000J0D01*
G01*
X182035440Y-78283320D01*
G75*
G02*
X182210440Y-78458320I0J-175000D01*
G01*
X182210440Y-78808320D01*
G75*
G02*
X182035440Y-78983320I-175000J0D01*
G01*
X180535440Y-78983320D01*
G75*
G02*
X180360440Y-78808320I0J175000D01*
G01*
G37*
G36*
G01*
X180360440Y-77538320D02*
X180360440Y-77188320D01*
G75*
G02*
X180535440Y-77013320I175000J0D01*
G01*
X182035440Y-77013320D01*
G75*
G02*
X182210440Y-77188320I0J-175000D01*
G01*
X182210440Y-77538320D01*
G75*
G02*
X182035440Y-77713320I-175000J0D01*
G01*
X180535440Y-77713320D01*
G75*
G02*
X180360440Y-77538320I0J175000D01*
G01*
G37*
%TD*%
D18*
%TO.C,J4*%
X186690000Y-55880000D03*
X184150000Y-55880000D03*
X181610000Y-55880000D03*
X176530000Y-55880000D03*
D19*
X173990000Y-55880000D03*
D18*
X179070000Y-55880000D03*
X171450000Y-55880000D03*
D20*
X165320000Y-72380000D03*
X192820000Y-72380000D03*
X192820000Y-56880000D03*
X165320000Y-56880000D03*
%TD*%
D21*
%TO.C,J3*%
X157921960Y-55880000D03*
X142681960Y-104140000D03*
X157921960Y-58420000D03*
X142681960Y-101600000D03*
X157921960Y-60960000D03*
X142681960Y-99060000D03*
X157921960Y-63500000D03*
X142681960Y-96520000D03*
X157921960Y-66040000D03*
X142681960Y-93980000D03*
X157921960Y-68580000D03*
X142681960Y-91440000D03*
X157921960Y-71120000D03*
X142681960Y-88900000D03*
X157921960Y-73660000D03*
X142681960Y-86360000D03*
X157921960Y-76200000D03*
X142681960Y-83820000D03*
X157921960Y-78740000D03*
X142681960Y-81280000D03*
X157921960Y-81280000D03*
X142681960Y-78740000D03*
X157921960Y-83820000D03*
X142681960Y-76200000D03*
X157921960Y-86360000D03*
X142681960Y-73660000D03*
X157921960Y-88900000D03*
X142681960Y-71120000D03*
X157921960Y-91440000D03*
X142681960Y-68580000D03*
X157921960Y-93980000D03*
X142681960Y-66040000D03*
X157921960Y-96520000D03*
X142681960Y-63500000D03*
X157921960Y-99060000D03*
X142681960Y-60960000D03*
X157921960Y-101600000D03*
X142681960Y-58420000D03*
X157921960Y-104140000D03*
D22*
X142681960Y-55880000D03*
%TD*%
D23*
%TO.C,J2*%
X124492500Y-56790000D03*
X124492500Y-62590000D03*
D24*
X124492500Y-63190000D03*
X124492500Y-56190000D03*
D25*
X124492500Y-58690000D03*
D26*
X127192500Y-62190000D03*
D27*
X127192500Y-59690000D03*
X127192500Y-60340000D03*
X127192500Y-60990000D03*
X127192500Y-58390000D03*
X127192500Y-59040000D03*
D26*
X127192500Y-57190000D03*
D25*
X124492500Y-60690000D03*
%TD*%
D16*
%TO.C,J1*%
X132080000Y-93980000D03*
X132080000Y-91440000D03*
D17*
X132080000Y-88900000D03*
%TD*%
D28*
%TO.C,D1*%
X144780000Y-112140000D03*
X144780000Y-108840000D03*
%TD*%
%TO.C,C5*%
G36*
G01*
X186208750Y-88030000D02*
X187171250Y-88030000D01*
G75*
G02*
X187440000Y-88298750I0J-268750D01*
G01*
X187440000Y-88836250D01*
G75*
G02*
X187171250Y-89105000I-268750J0D01*
G01*
X186208750Y-89105000D01*
G75*
G02*
X185940000Y-88836250I0J268750D01*
G01*
X185940000Y-88298750D01*
G75*
G02*
X186208750Y-88030000I268750J0D01*
G01*
G37*
G36*
G01*
X186208750Y-86155000D02*
X187171250Y-86155000D01*
G75*
G02*
X187440000Y-86423750I0J-268750D01*
G01*
X187440000Y-86961250D01*
G75*
G02*
X187171250Y-87230000I-268750J0D01*
G01*
X186208750Y-87230000D01*
G75*
G02*
X185940000Y-86961250I0J268750D01*
G01*
X185940000Y-86423750D01*
G75*
G02*
X186208750Y-86155000I268750J0D01*
G01*
G37*
%TD*%
%TO.C,C4*%
G36*
G01*
X136678750Y-109620000D02*
X137641250Y-109620000D01*
G75*
G02*
X137910000Y-109888750I0J-268750D01*
G01*
X137910000Y-110426250D01*
G75*
G02*
X137641250Y-110695000I-268750J0D01*
G01*
X136678750Y-110695000D01*
G75*
G02*
X136410000Y-110426250I0J268750D01*
G01*
X136410000Y-109888750D01*
G75*
G02*
X136678750Y-109620000I268750J0D01*
G01*
G37*
G36*
G01*
X136678750Y-107745000D02*
X137641250Y-107745000D01*
G75*
G02*
X137910000Y-108013750I0J-268750D01*
G01*
X137910000Y-108551250D01*
G75*
G02*
X137641250Y-108820000I-268750J0D01*
G01*
X136678750Y-108820000D01*
G75*
G02*
X136410000Y-108551250I0J268750D01*
G01*
X136410000Y-108013750D01*
G75*
G02*
X136678750Y-107745000I268750J0D01*
G01*
G37*
%TD*%
%TO.C,C3*%
G36*
G01*
X138911250Y-95787500D02*
X137948750Y-95787500D01*
G75*
G02*
X137680000Y-95518750I0J268750D01*
G01*
X137680000Y-94981250D01*
G75*
G02*
X137948750Y-94712500I268750J0D01*
G01*
X138911250Y-94712500D01*
G75*
G02*
X139180000Y-94981250I0J-268750D01*
G01*
X139180000Y-95518750D01*
G75*
G02*
X138911250Y-95787500I-268750J0D01*
G01*
G37*
G36*
G01*
X138911250Y-97662500D02*
X137948750Y-97662500D01*
G75*
G02*
X137680000Y-97393750I0J268750D01*
G01*
X137680000Y-96856250D01*
G75*
G02*
X137948750Y-96587500I268750J0D01*
G01*
X138911250Y-96587500D01*
G75*
G02*
X139180000Y-96856250I0J-268750D01*
G01*
X139180000Y-97393750D01*
G75*
G02*
X138911250Y-97662500I-268750J0D01*
G01*
G37*
%TD*%
%TO.C,C2*%
G36*
G01*
X137365000Y-66828750D02*
X137365000Y-67791250D01*
G75*
G02*
X137096250Y-68060000I-268750J0D01*
G01*
X136558750Y-68060000D01*
G75*
G02*
X136290000Y-67791250I0J268750D01*
G01*
X136290000Y-66828750D01*
G75*
G02*
X136558750Y-66560000I268750J0D01*
G01*
X137096250Y-66560000D01*
G75*
G02*
X137365000Y-66828750I0J-268750D01*
G01*
G37*
G36*
G01*
X135490000Y-66828750D02*
X135490000Y-67791250D01*
G75*
G02*
X135221250Y-68060000I-268750J0D01*
G01*
X134683750Y-68060000D01*
G75*
G02*
X134415000Y-67791250I0J268750D01*
G01*
X134415000Y-66828750D01*
G75*
G02*
X134683750Y-66560000I268750J0D01*
G01*
X135221250Y-66560000D01*
G75*
G02*
X135490000Y-66828750I0J-268750D01*
G01*
G37*
%TD*%
%TO.C,C1*%
G36*
G01*
X138911250Y-88167500D02*
X137948750Y-88167500D01*
G75*
G02*
X137680000Y-87898750I0J268750D01*
G01*
X137680000Y-87361250D01*
G75*
G02*
X137948750Y-87092500I268750J0D01*
G01*
X138911250Y-87092500D01*
G75*
G02*
X139180000Y-87361250I0J-268750D01*
G01*
X139180000Y-87898750D01*
G75*
G02*
X138911250Y-88167500I-268750J0D01*
G01*
G37*
G36*
G01*
X138911250Y-90042500D02*
X137948750Y-90042500D01*
G75*
G02*
X137680000Y-89773750I0J268750D01*
G01*
X137680000Y-89236250D01*
G75*
G02*
X137948750Y-88967500I268750J0D01*
G01*
X138911250Y-88967500D01*
G75*
G02*
X139180000Y-89236250I0J-268750D01*
G01*
X139180000Y-89773750D01*
G75*
G02*
X138911250Y-90042500I-268750J0D01*
G01*
G37*
%TD*%
D29*
%TO.C,BZ1*%
X148900000Y-108570000D03*
X148900000Y-115570000D03*
X155900000Y-115570000D03*
X155900000Y-108570000D03*
%TD*%
M02*
