M48
; DRILL file {KiCad (5.1.6)-1} date 11/21/20 19:00:17
; FORMAT={-:-/ absolute / inch / decimal}
; #@! TF.CreationDate,2020-11-21T19:00:17+08:00
; #@! TF.GenerationSoftware,Kicad,Pcbnew,(5.1.6)-1
; #@! TF.FileFunction,Plated,1,2,PTH
FMAT,2
INCH
T1C0.0157
T2C0.0236
T3C0.0295
T4C0.0300
T5C0.0315
T6C0.0335
T7C0.0394
%
G90
G05
T1
X5.05Y-2.15
X5.05Y-3.07
X5.09Y-4.03
X5.1Y-2.5
X5.16Y-3.88
X5.2Y-2.6
X5.2Y-3.94
X5.26Y-4.24
X5.28Y-3.83
X5.2989Y-3.0911
X5.34Y-4.23
X5.35Y-3.83
X5.37Y-3.37
X5.37Y-3.37
X5.4Y-2.8
X5.4Y-2.8
X5.41Y-3.03
X5.45Y-3.1
X5.45Y-3.65
X5.51Y-3.5
X5.52Y-3.91
X5.63Y-4.21
X6.6Y-2.2
X6.6Y-2.2
X6.6Y-2.2
X6.6Y-2.2
X6.9Y-3.2
X6.9Y-3.2
X7.05Y-2.7
X7.2Y-2.05
X7.25Y-2.75
T3
X4.95Y-3.85
X5.0Y-3.85
X5.05Y-3.85
T4
X6.5087Y-2.2394
X6.5087Y-2.8496
X7.5913Y-2.2394
X7.5913Y-2.8496
T5
X6.75Y-2.2
X6.85Y-2.2
X6.95Y-2.2
X7.05Y-2.2
X7.15Y-2.2
X7.25Y-2.2
X7.35Y-2.2
X5.6174Y-2.2
X5.6174Y-2.3
X5.6174Y-2.4
X5.6174Y-2.5
X5.6174Y-2.6
X5.6174Y-2.7
X5.6174Y-2.8
X5.6174Y-2.9
X5.6174Y-3.0
X5.6174Y-3.1
X5.6174Y-3.2
X5.6174Y-3.3
X5.6174Y-3.4
X5.6174Y-3.5
X5.6174Y-3.6
X5.6174Y-3.7
X5.6174Y-3.8
X5.6174Y-3.9
X5.6174Y-4.0
X5.6174Y-4.1
X6.2174Y-2.2
X6.2174Y-2.3
X6.2174Y-2.4
X6.2174Y-2.5
X6.2174Y-2.6
X6.2174Y-2.7
X6.2174Y-2.8
X6.2174Y-2.9
X6.2174Y-3.0
X6.2174Y-3.1
X6.2174Y-3.2
X6.2174Y-3.3
X6.2174Y-3.4
X6.2174Y-3.5
X6.2174Y-3.6
X6.2174Y-3.7
X6.2174Y-3.8
X6.2174Y-3.9
X6.2174Y-4.0
X6.2174Y-4.1
X4.95Y-3.05
X5.05Y-3.15
X5.15Y-3.05
T6
X5.0076Y-2.2516
X5.0076Y-2.4484
T7
X5.25Y-4.15
X7.55Y-3.15
X7.55Y-3.25
X5.2Y-3.5
X5.2Y-3.6
X5.2Y-3.7
T2
G00X4.8875Y-2.2122
M15
G01X4.9151Y-2.2122
M16
G05
G00X4.9151Y-2.4878
M15
G01X4.8875Y-2.4878
M16
G05
T0
M30
