%TF.GenerationSoftware,KiCad,Pcbnew,(5.1.6)-1*%
%TF.CreationDate,2020-11-21T18:59:45+08:00*%
%TF.ProjectId,Nov_21,4e6f765f-3231-42e6-9b69-6361645f7063,rev?*%
%TF.SameCoordinates,Original*%
%TF.FileFunction,Legend,Top*%
%TF.FilePolarity,Positive*%
%FSLAX46Y46*%
G04 Gerber Fmt 4.6, Leading zero omitted, Abs format (unit mm)*
G04 Created by KiCad (PCBNEW (5.1.6)-1) date 2020-11-21 18:59:45*
%MOMM*%
%LPD*%
G01*
G04 APERTURE LIST*
%ADD10C,0.120000*%
%ADD11C,0.150000*%
G04 APERTURE END LIST*
D10*
%TO.C,RV1*%
X133155000Y-72570000D02*
X133155000Y-82340000D01*
X123385000Y-72570000D02*
X123385000Y-82340000D01*
X133155000Y-72570000D02*
X123385000Y-72570000D01*
X133155000Y-82340000D02*
X123385000Y-82340000D01*
%TO.C,U3*%
X135010000Y-82840000D02*
X136770000Y-82840000D01*
X136770000Y-79770000D02*
X134340000Y-79770000D01*
%TO.C,U2*%
X134620000Y-54630000D02*
X132670000Y-54630000D01*
X134620000Y-54630000D02*
X136570000Y-54630000D01*
X134620000Y-64750000D02*
X132670000Y-64750000D01*
X134620000Y-64750000D02*
X138070000Y-64750000D01*
%TO.C,U1*%
X128838478Y-99628478D02*
G75*
G03*
X127000000Y-95190000I-1838478J1838478D01*
G01*
X125161522Y-99628478D02*
G75*
G02*
X127000000Y-95190000I1838478J1838478D01*
G01*
X125200000Y-99640000D02*
X128800000Y-99640000D01*
%TO.C,TP1*%
X134850000Y-105410000D02*
G75*
G03*
X134850000Y-105410000I-1500000J0D01*
G01*
%TO.C,R25*%
X168983922Y-100890000D02*
X169501078Y-100890000D01*
X168983922Y-102310000D02*
X169501078Y-102310000D01*
%TO.C,R24*%
X175001422Y-78030000D02*
X175518578Y-78030000D01*
X175001422Y-79450000D02*
X175518578Y-79450000D01*
%TO.C,R23*%
X175518578Y-84530000D02*
X175001422Y-84530000D01*
X175518578Y-83110000D02*
X175001422Y-83110000D01*
%TO.C,R22*%
X168983922Y-98350000D02*
X169501078Y-98350000D01*
X168983922Y-99770000D02*
X169501078Y-99770000D01*
%TO.C,R21*%
X168983922Y-95810000D02*
X169501078Y-95810000D01*
X168983922Y-97230000D02*
X169501078Y-97230000D01*
%TO.C,R20*%
X168983922Y-93270000D02*
X169501078Y-93270000D01*
X168983922Y-94690000D02*
X169501078Y-94690000D01*
%TO.C,R19*%
X168983922Y-90730000D02*
X169501078Y-90730000D01*
X168983922Y-92150000D02*
X169501078Y-92150000D01*
%TO.C,R18*%
X168983922Y-88190000D02*
X169501078Y-88190000D01*
X168983922Y-89610000D02*
X169501078Y-89610000D01*
%TO.C,R17*%
X168983922Y-85650000D02*
X169501078Y-85650000D01*
X168983922Y-87070000D02*
X169501078Y-87070000D01*
%TO.C,R16*%
X168983922Y-83110000D02*
X169501078Y-83110000D01*
X168983922Y-84530000D02*
X169501078Y-84530000D01*
%TO.C,R15*%
X168983922Y-80570000D02*
X169501078Y-80570000D01*
X168983922Y-81990000D02*
X169501078Y-81990000D01*
%TO.C,R14*%
X168983922Y-78030000D02*
X169501078Y-78030000D01*
X168983922Y-79450000D02*
X169501078Y-79450000D01*
%TO.C,R13*%
X164088578Y-81990000D02*
X163571422Y-81990000D01*
X164088578Y-80570000D02*
X163571422Y-80570000D01*
%TO.C,R12*%
X164088578Y-99770000D02*
X163571422Y-99770000D01*
X164088578Y-98350000D02*
X163571422Y-98350000D01*
%TO.C,R11*%
X164088578Y-97230000D02*
X163571422Y-97230000D01*
X164088578Y-95810000D02*
X163571422Y-95810000D01*
%TO.C,R10*%
X164088578Y-94690000D02*
X163571422Y-94690000D01*
X164088578Y-93270000D02*
X163571422Y-93270000D01*
%TO.C,R9*%
X164088578Y-89610000D02*
X163571422Y-89610000D01*
X164088578Y-88190000D02*
X163571422Y-88190000D01*
%TO.C,R8*%
X164088578Y-87070000D02*
X163571422Y-87070000D01*
X164088578Y-85650000D02*
X163571422Y-85650000D01*
%TO.C,R7*%
X164088578Y-84530000D02*
X163571422Y-84530000D01*
X164088578Y-83110000D02*
X163571422Y-83110000D01*
%TO.C,R6*%
X164088578Y-102310000D02*
X163571422Y-102310000D01*
X164088578Y-100890000D02*
X163571422Y-100890000D01*
%TO.C,R5*%
X164088578Y-92150000D02*
X163571422Y-92150000D01*
X164088578Y-90730000D02*
X163571422Y-90730000D01*
%TO.C,R4*%
X164088578Y-79450000D02*
X163571422Y-79450000D01*
X164088578Y-78030000D02*
X163571422Y-78030000D01*
%TO.C,R3*%
X136450000Y-105336078D02*
X136450000Y-104818922D01*
X137870000Y-105336078D02*
X137870000Y-104818922D01*
%TO.C,R2*%
X128830000Y-105336078D02*
X128830000Y-104818922D01*
X130250000Y-105336078D02*
X130250000Y-104818922D01*
%TO.C,R1*%
X136600000Y-100403922D02*
X136600000Y-100921078D01*
X135180000Y-100403922D02*
X135180000Y-100921078D01*
%TO.C,Q1*%
X139190000Y-115880000D02*
X139190000Y-114950000D01*
X139190000Y-112720000D02*
X139190000Y-113650000D01*
X139190000Y-112720000D02*
X137030000Y-112720000D01*
X139190000Y-115880000D02*
X137730000Y-115880000D01*
%TO.C,J6*%
X190440000Y-83880000D02*
X193100000Y-83880000D01*
X190440000Y-81280000D02*
X190440000Y-83880000D01*
X193100000Y-81280000D02*
X193100000Y-83880000D01*
X190440000Y-81280000D02*
X193100000Y-81280000D01*
X190440000Y-80010000D02*
X190440000Y-78680000D01*
X190440000Y-78680000D02*
X191770000Y-78680000D01*
%TO.C,J5*%
X183860440Y-81828320D02*
X185810440Y-81828320D01*
X183860440Y-81828320D02*
X181910440Y-81828320D01*
X183860440Y-76708320D02*
X185810440Y-76708320D01*
X183860440Y-76708320D02*
X180410440Y-76708320D01*
%TO.C,J4*%
X162820000Y-54380000D02*
X195320000Y-54380000D01*
X195320000Y-54380000D02*
X195320000Y-74880000D01*
X162820000Y-74880000D02*
X195320000Y-74880000D01*
X162820000Y-54380000D02*
X162820000Y-74880000D01*
%TO.C,J3*%
X151301960Y-54550000D02*
G75*
G02*
X149301960Y-54550000I-1000000J0D01*
G01*
X149301960Y-54550000D02*
X143841960Y-54550000D01*
X143841960Y-54550000D02*
X143841960Y-105470000D01*
X143841960Y-105470000D02*
X156761960Y-105470000D01*
X156761960Y-105470000D02*
X156761960Y-54550000D01*
X156761960Y-54550000D02*
X151301960Y-54550000D01*
X141351960Y-54490000D02*
X141351960Y-105530000D01*
X141351960Y-105530000D02*
X159251960Y-105530000D01*
X159251960Y-105530000D02*
X159251960Y-54490000D01*
X159251960Y-54490000D02*
X141351960Y-54490000D01*
%TO.C,J2*%
X127492500Y-55790000D02*
X127492500Y-56240000D01*
X125642500Y-55790000D02*
X127492500Y-55790000D01*
X123092500Y-63590000D02*
X123342500Y-63590000D01*
X123092500Y-55790000D02*
X123342500Y-55790000D01*
X125642500Y-63590000D02*
X127492500Y-63590000D01*
X127492500Y-63590000D02*
X127492500Y-63140000D01*
X128042500Y-57990000D02*
X128042500Y-58440000D01*
X128042500Y-57990000D02*
X127592500Y-57990000D01*
%TO.C,J1*%
X130750000Y-95310000D02*
X133410000Y-95310000D01*
X130750000Y-90170000D02*
X130750000Y-95310000D01*
X133410000Y-90170000D02*
X133410000Y-95310000D01*
X130750000Y-90170000D02*
X133410000Y-90170000D01*
X130750000Y-88900000D02*
X130750000Y-87570000D01*
X130750000Y-87570000D02*
X132080000Y-87570000D01*
%TO.C,D1*%
X145780000Y-108240000D02*
X143780000Y-108240000D01*
X143780000Y-108240000D02*
X143780000Y-112140000D01*
X145780000Y-108240000D02*
X145780000Y-112140000D01*
%TO.C,C5*%
X187400000Y-87371422D02*
X187400000Y-87888578D01*
X185980000Y-87371422D02*
X185980000Y-87888578D01*
%TO.C,C4*%
X137870000Y-108961422D02*
X137870000Y-109478578D01*
X136450000Y-108961422D02*
X136450000Y-109478578D01*
%TO.C,C3*%
X137720000Y-96446078D02*
X137720000Y-95928922D01*
X139140000Y-96446078D02*
X139140000Y-95928922D01*
%TO.C,C2*%
X136148578Y-66600000D02*
X135631422Y-66600000D01*
X136148578Y-68020000D02*
X135631422Y-68020000D01*
%TO.C,C1*%
X137720000Y-88826078D02*
X137720000Y-88308922D01*
X139140000Y-88826078D02*
X139140000Y-88308922D01*
%TO.C,BZ1*%
X156750000Y-114070000D02*
X156750000Y-110070000D01*
X150400000Y-116420000D02*
X154400000Y-116420000D01*
X148050000Y-110070000D02*
X148050000Y-114070000D01*
X154400000Y-107720000D02*
X150400000Y-107720000D01*
%TO.C,RV1*%
D11*
X134737380Y-78050238D02*
X134261190Y-78383571D01*
X134737380Y-78621666D02*
X133737380Y-78621666D01*
X133737380Y-78240714D01*
X133785000Y-78145476D01*
X133832619Y-78097857D01*
X133927857Y-78050238D01*
X134070714Y-78050238D01*
X134165952Y-78097857D01*
X134213571Y-78145476D01*
X134261190Y-78240714D01*
X134261190Y-78621666D01*
X133737380Y-77764523D02*
X134737380Y-77431190D01*
X133737380Y-77097857D01*
X134737380Y-76240714D02*
X134737380Y-76812142D01*
X134737380Y-76526428D02*
X133737380Y-76526428D01*
X133880238Y-76621666D01*
X133975476Y-76716904D01*
X134023095Y-76812142D01*
%TO.C,U3*%
X135128095Y-78282380D02*
X135128095Y-79091904D01*
X135175714Y-79187142D01*
X135223333Y-79234761D01*
X135318571Y-79282380D01*
X135509047Y-79282380D01*
X135604285Y-79234761D01*
X135651904Y-79187142D01*
X135699523Y-79091904D01*
X135699523Y-78282380D01*
X136080476Y-78282380D02*
X136699523Y-78282380D01*
X136366190Y-78663333D01*
X136509047Y-78663333D01*
X136604285Y-78710952D01*
X136651904Y-78758571D01*
X136699523Y-78853809D01*
X136699523Y-79091904D01*
X136651904Y-79187142D01*
X136604285Y-79234761D01*
X136509047Y-79282380D01*
X136223333Y-79282380D01*
X136128095Y-79234761D01*
X136080476Y-79187142D01*
%TO.C,U2*%
X133858095Y-65042380D02*
X133858095Y-65851904D01*
X133905714Y-65947142D01*
X133953333Y-65994761D01*
X134048571Y-66042380D01*
X134239047Y-66042380D01*
X134334285Y-65994761D01*
X134381904Y-65947142D01*
X134429523Y-65851904D01*
X134429523Y-65042380D01*
X134858095Y-65137619D02*
X134905714Y-65090000D01*
X135000952Y-65042380D01*
X135239047Y-65042380D01*
X135334285Y-65090000D01*
X135381904Y-65137619D01*
X135429523Y-65232857D01*
X135429523Y-65328095D01*
X135381904Y-65470952D01*
X134810476Y-66042380D01*
X135429523Y-66042380D01*
%TO.C,U1*%
X126238095Y-93682380D02*
X126238095Y-94491904D01*
X126285714Y-94587142D01*
X126333333Y-94634761D01*
X126428571Y-94682380D01*
X126619047Y-94682380D01*
X126714285Y-94634761D01*
X126761904Y-94587142D01*
X126809523Y-94491904D01*
X126809523Y-93682380D01*
X127809523Y-94682380D02*
X127238095Y-94682380D01*
X127523809Y-94682380D02*
X127523809Y-93682380D01*
X127428571Y-93825238D01*
X127333333Y-93920476D01*
X127238095Y-93968095D01*
%TO.C,TP1*%
X132788095Y-107362380D02*
X133359523Y-107362380D01*
X133073809Y-108362380D02*
X133073809Y-107362380D01*
X133692857Y-108362380D02*
X133692857Y-107362380D01*
X134073809Y-107362380D01*
X134169047Y-107410000D01*
X134216666Y-107457619D01*
X134264285Y-107552857D01*
X134264285Y-107695714D01*
X134216666Y-107790952D01*
X134169047Y-107838571D01*
X134073809Y-107886190D01*
X133692857Y-107886190D01*
X135216666Y-108362380D02*
X134645238Y-108362380D01*
X134930952Y-108362380D02*
X134930952Y-107362380D01*
X134835714Y-107505238D01*
X134740476Y-107600476D01*
X134645238Y-107648095D01*
%TO.C,R25*%
X168599642Y-100402380D02*
X168266309Y-99926190D01*
X168028214Y-100402380D02*
X168028214Y-99402380D01*
X168409166Y-99402380D01*
X168504404Y-99450000D01*
X168552023Y-99497619D01*
X168599642Y-99592857D01*
X168599642Y-99735714D01*
X168552023Y-99830952D01*
X168504404Y-99878571D01*
X168409166Y-99926190D01*
X168028214Y-99926190D01*
X168980595Y-99497619D02*
X169028214Y-99450000D01*
X169123452Y-99402380D01*
X169361547Y-99402380D01*
X169456785Y-99450000D01*
X169504404Y-99497619D01*
X169552023Y-99592857D01*
X169552023Y-99688095D01*
X169504404Y-99830952D01*
X168932976Y-100402380D01*
X169552023Y-100402380D01*
X170456785Y-99402380D02*
X169980595Y-99402380D01*
X169932976Y-99878571D01*
X169980595Y-99830952D01*
X170075833Y-99783333D01*
X170313928Y-99783333D01*
X170409166Y-99830952D01*
X170456785Y-99878571D01*
X170504404Y-99973809D01*
X170504404Y-100211904D01*
X170456785Y-100307142D01*
X170409166Y-100354761D01*
X170313928Y-100402380D01*
X170075833Y-100402380D01*
X169980595Y-100354761D01*
X169932976Y-100307142D01*
%TO.C,R24*%
X174617142Y-77542380D02*
X174283809Y-77066190D01*
X174045714Y-77542380D02*
X174045714Y-76542380D01*
X174426666Y-76542380D01*
X174521904Y-76590000D01*
X174569523Y-76637619D01*
X174617142Y-76732857D01*
X174617142Y-76875714D01*
X174569523Y-76970952D01*
X174521904Y-77018571D01*
X174426666Y-77066190D01*
X174045714Y-77066190D01*
X174998095Y-76637619D02*
X175045714Y-76590000D01*
X175140952Y-76542380D01*
X175379047Y-76542380D01*
X175474285Y-76590000D01*
X175521904Y-76637619D01*
X175569523Y-76732857D01*
X175569523Y-76828095D01*
X175521904Y-76970952D01*
X174950476Y-77542380D01*
X175569523Y-77542380D01*
X176426666Y-76875714D02*
X176426666Y-77542380D01*
X176188571Y-76494761D02*
X175950476Y-77209047D01*
X176569523Y-77209047D01*
%TO.C,R23*%
X174617142Y-85922380D02*
X174283809Y-85446190D01*
X174045714Y-85922380D02*
X174045714Y-84922380D01*
X174426666Y-84922380D01*
X174521904Y-84970000D01*
X174569523Y-85017619D01*
X174617142Y-85112857D01*
X174617142Y-85255714D01*
X174569523Y-85350952D01*
X174521904Y-85398571D01*
X174426666Y-85446190D01*
X174045714Y-85446190D01*
X174998095Y-85017619D02*
X175045714Y-84970000D01*
X175140952Y-84922380D01*
X175379047Y-84922380D01*
X175474285Y-84970000D01*
X175521904Y-85017619D01*
X175569523Y-85112857D01*
X175569523Y-85208095D01*
X175521904Y-85350952D01*
X174950476Y-85922380D01*
X175569523Y-85922380D01*
X175902857Y-84922380D02*
X176521904Y-84922380D01*
X176188571Y-85303333D01*
X176331428Y-85303333D01*
X176426666Y-85350952D01*
X176474285Y-85398571D01*
X176521904Y-85493809D01*
X176521904Y-85731904D01*
X176474285Y-85827142D01*
X176426666Y-85874761D01*
X176331428Y-85922380D01*
X176045714Y-85922380D01*
X175950476Y-85874761D01*
X175902857Y-85827142D01*
%TO.C,R22*%
X168599642Y-97862380D02*
X168266309Y-97386190D01*
X168028214Y-97862380D02*
X168028214Y-96862380D01*
X168409166Y-96862380D01*
X168504404Y-96910000D01*
X168552023Y-96957619D01*
X168599642Y-97052857D01*
X168599642Y-97195714D01*
X168552023Y-97290952D01*
X168504404Y-97338571D01*
X168409166Y-97386190D01*
X168028214Y-97386190D01*
X168980595Y-96957619D02*
X169028214Y-96910000D01*
X169123452Y-96862380D01*
X169361547Y-96862380D01*
X169456785Y-96910000D01*
X169504404Y-96957619D01*
X169552023Y-97052857D01*
X169552023Y-97148095D01*
X169504404Y-97290952D01*
X168932976Y-97862380D01*
X169552023Y-97862380D01*
X169932976Y-96957619D02*
X169980595Y-96910000D01*
X170075833Y-96862380D01*
X170313928Y-96862380D01*
X170409166Y-96910000D01*
X170456785Y-96957619D01*
X170504404Y-97052857D01*
X170504404Y-97148095D01*
X170456785Y-97290952D01*
X169885357Y-97862380D01*
X170504404Y-97862380D01*
%TO.C,R21*%
X168599642Y-95322380D02*
X168266309Y-94846190D01*
X168028214Y-95322380D02*
X168028214Y-94322380D01*
X168409166Y-94322380D01*
X168504404Y-94370000D01*
X168552023Y-94417619D01*
X168599642Y-94512857D01*
X168599642Y-94655714D01*
X168552023Y-94750952D01*
X168504404Y-94798571D01*
X168409166Y-94846190D01*
X168028214Y-94846190D01*
X168980595Y-94417619D02*
X169028214Y-94370000D01*
X169123452Y-94322380D01*
X169361547Y-94322380D01*
X169456785Y-94370000D01*
X169504404Y-94417619D01*
X169552023Y-94512857D01*
X169552023Y-94608095D01*
X169504404Y-94750952D01*
X168932976Y-95322380D01*
X169552023Y-95322380D01*
X170504404Y-95322380D02*
X169932976Y-95322380D01*
X170218690Y-95322380D02*
X170218690Y-94322380D01*
X170123452Y-94465238D01*
X170028214Y-94560476D01*
X169932976Y-94608095D01*
%TO.C,R20*%
X168599642Y-92782380D02*
X168266309Y-92306190D01*
X168028214Y-92782380D02*
X168028214Y-91782380D01*
X168409166Y-91782380D01*
X168504404Y-91830000D01*
X168552023Y-91877619D01*
X168599642Y-91972857D01*
X168599642Y-92115714D01*
X168552023Y-92210952D01*
X168504404Y-92258571D01*
X168409166Y-92306190D01*
X168028214Y-92306190D01*
X168980595Y-91877619D02*
X169028214Y-91830000D01*
X169123452Y-91782380D01*
X169361547Y-91782380D01*
X169456785Y-91830000D01*
X169504404Y-91877619D01*
X169552023Y-91972857D01*
X169552023Y-92068095D01*
X169504404Y-92210952D01*
X168932976Y-92782380D01*
X169552023Y-92782380D01*
X170171071Y-91782380D02*
X170266309Y-91782380D01*
X170361547Y-91830000D01*
X170409166Y-91877619D01*
X170456785Y-91972857D01*
X170504404Y-92163333D01*
X170504404Y-92401428D01*
X170456785Y-92591904D01*
X170409166Y-92687142D01*
X170361547Y-92734761D01*
X170266309Y-92782380D01*
X170171071Y-92782380D01*
X170075833Y-92734761D01*
X170028214Y-92687142D01*
X169980595Y-92591904D01*
X169932976Y-92401428D01*
X169932976Y-92163333D01*
X169980595Y-91972857D01*
X170028214Y-91877619D01*
X170075833Y-91830000D01*
X170171071Y-91782380D01*
%TO.C,R19*%
X168599642Y-90242380D02*
X168266309Y-89766190D01*
X168028214Y-90242380D02*
X168028214Y-89242380D01*
X168409166Y-89242380D01*
X168504404Y-89290000D01*
X168552023Y-89337619D01*
X168599642Y-89432857D01*
X168599642Y-89575714D01*
X168552023Y-89670952D01*
X168504404Y-89718571D01*
X168409166Y-89766190D01*
X168028214Y-89766190D01*
X169552023Y-90242380D02*
X168980595Y-90242380D01*
X169266309Y-90242380D02*
X169266309Y-89242380D01*
X169171071Y-89385238D01*
X169075833Y-89480476D01*
X168980595Y-89528095D01*
X170028214Y-90242380D02*
X170218690Y-90242380D01*
X170313928Y-90194761D01*
X170361547Y-90147142D01*
X170456785Y-90004285D01*
X170504404Y-89813809D01*
X170504404Y-89432857D01*
X170456785Y-89337619D01*
X170409166Y-89290000D01*
X170313928Y-89242380D01*
X170123452Y-89242380D01*
X170028214Y-89290000D01*
X169980595Y-89337619D01*
X169932976Y-89432857D01*
X169932976Y-89670952D01*
X169980595Y-89766190D01*
X170028214Y-89813809D01*
X170123452Y-89861428D01*
X170313928Y-89861428D01*
X170409166Y-89813809D01*
X170456785Y-89766190D01*
X170504404Y-89670952D01*
%TO.C,R18*%
X168599642Y-87702380D02*
X168266309Y-87226190D01*
X168028214Y-87702380D02*
X168028214Y-86702380D01*
X168409166Y-86702380D01*
X168504404Y-86750000D01*
X168552023Y-86797619D01*
X168599642Y-86892857D01*
X168599642Y-87035714D01*
X168552023Y-87130952D01*
X168504404Y-87178571D01*
X168409166Y-87226190D01*
X168028214Y-87226190D01*
X169552023Y-87702380D02*
X168980595Y-87702380D01*
X169266309Y-87702380D02*
X169266309Y-86702380D01*
X169171071Y-86845238D01*
X169075833Y-86940476D01*
X168980595Y-86988095D01*
X170123452Y-87130952D02*
X170028214Y-87083333D01*
X169980595Y-87035714D01*
X169932976Y-86940476D01*
X169932976Y-86892857D01*
X169980595Y-86797619D01*
X170028214Y-86750000D01*
X170123452Y-86702380D01*
X170313928Y-86702380D01*
X170409166Y-86750000D01*
X170456785Y-86797619D01*
X170504404Y-86892857D01*
X170504404Y-86940476D01*
X170456785Y-87035714D01*
X170409166Y-87083333D01*
X170313928Y-87130952D01*
X170123452Y-87130952D01*
X170028214Y-87178571D01*
X169980595Y-87226190D01*
X169932976Y-87321428D01*
X169932976Y-87511904D01*
X169980595Y-87607142D01*
X170028214Y-87654761D01*
X170123452Y-87702380D01*
X170313928Y-87702380D01*
X170409166Y-87654761D01*
X170456785Y-87607142D01*
X170504404Y-87511904D01*
X170504404Y-87321428D01*
X170456785Y-87226190D01*
X170409166Y-87178571D01*
X170313928Y-87130952D01*
%TO.C,R17*%
X168599642Y-85162380D02*
X168266309Y-84686190D01*
X168028214Y-85162380D02*
X168028214Y-84162380D01*
X168409166Y-84162380D01*
X168504404Y-84210000D01*
X168552023Y-84257619D01*
X168599642Y-84352857D01*
X168599642Y-84495714D01*
X168552023Y-84590952D01*
X168504404Y-84638571D01*
X168409166Y-84686190D01*
X168028214Y-84686190D01*
X169552023Y-85162380D02*
X168980595Y-85162380D01*
X169266309Y-85162380D02*
X169266309Y-84162380D01*
X169171071Y-84305238D01*
X169075833Y-84400476D01*
X168980595Y-84448095D01*
X169885357Y-84162380D02*
X170552023Y-84162380D01*
X170123452Y-85162380D01*
%TO.C,R16*%
X168599642Y-82622380D02*
X168266309Y-82146190D01*
X168028214Y-82622380D02*
X168028214Y-81622380D01*
X168409166Y-81622380D01*
X168504404Y-81670000D01*
X168552023Y-81717619D01*
X168599642Y-81812857D01*
X168599642Y-81955714D01*
X168552023Y-82050952D01*
X168504404Y-82098571D01*
X168409166Y-82146190D01*
X168028214Y-82146190D01*
X169552023Y-82622380D02*
X168980595Y-82622380D01*
X169266309Y-82622380D02*
X169266309Y-81622380D01*
X169171071Y-81765238D01*
X169075833Y-81860476D01*
X168980595Y-81908095D01*
X170409166Y-81622380D02*
X170218690Y-81622380D01*
X170123452Y-81670000D01*
X170075833Y-81717619D01*
X169980595Y-81860476D01*
X169932976Y-82050952D01*
X169932976Y-82431904D01*
X169980595Y-82527142D01*
X170028214Y-82574761D01*
X170123452Y-82622380D01*
X170313928Y-82622380D01*
X170409166Y-82574761D01*
X170456785Y-82527142D01*
X170504404Y-82431904D01*
X170504404Y-82193809D01*
X170456785Y-82098571D01*
X170409166Y-82050952D01*
X170313928Y-82003333D01*
X170123452Y-82003333D01*
X170028214Y-82050952D01*
X169980595Y-82098571D01*
X169932976Y-82193809D01*
%TO.C,R15*%
X168599642Y-80082380D02*
X168266309Y-79606190D01*
X168028214Y-80082380D02*
X168028214Y-79082380D01*
X168409166Y-79082380D01*
X168504404Y-79130000D01*
X168552023Y-79177619D01*
X168599642Y-79272857D01*
X168599642Y-79415714D01*
X168552023Y-79510952D01*
X168504404Y-79558571D01*
X168409166Y-79606190D01*
X168028214Y-79606190D01*
X169552023Y-80082380D02*
X168980595Y-80082380D01*
X169266309Y-80082380D02*
X169266309Y-79082380D01*
X169171071Y-79225238D01*
X169075833Y-79320476D01*
X168980595Y-79368095D01*
X170456785Y-79082380D02*
X169980595Y-79082380D01*
X169932976Y-79558571D01*
X169980595Y-79510952D01*
X170075833Y-79463333D01*
X170313928Y-79463333D01*
X170409166Y-79510952D01*
X170456785Y-79558571D01*
X170504404Y-79653809D01*
X170504404Y-79891904D01*
X170456785Y-79987142D01*
X170409166Y-80034761D01*
X170313928Y-80082380D01*
X170075833Y-80082380D01*
X169980595Y-80034761D01*
X169932976Y-79987142D01*
%TO.C,R14*%
X168599642Y-77542380D02*
X168266309Y-77066190D01*
X168028214Y-77542380D02*
X168028214Y-76542380D01*
X168409166Y-76542380D01*
X168504404Y-76590000D01*
X168552023Y-76637619D01*
X168599642Y-76732857D01*
X168599642Y-76875714D01*
X168552023Y-76970952D01*
X168504404Y-77018571D01*
X168409166Y-77066190D01*
X168028214Y-77066190D01*
X169552023Y-77542380D02*
X168980595Y-77542380D01*
X169266309Y-77542380D02*
X169266309Y-76542380D01*
X169171071Y-76685238D01*
X169075833Y-76780476D01*
X168980595Y-76828095D01*
X170409166Y-76875714D02*
X170409166Y-77542380D01*
X170171071Y-76494761D02*
X169932976Y-77209047D01*
X170552023Y-77209047D01*
%TO.C,R13*%
X163187142Y-83382380D02*
X162853809Y-82906190D01*
X162615714Y-83382380D02*
X162615714Y-82382380D01*
X162996666Y-82382380D01*
X163091904Y-82430000D01*
X163139523Y-82477619D01*
X163187142Y-82572857D01*
X163187142Y-82715714D01*
X163139523Y-82810952D01*
X163091904Y-82858571D01*
X162996666Y-82906190D01*
X162615714Y-82906190D01*
X164139523Y-83382380D02*
X163568095Y-83382380D01*
X163853809Y-83382380D02*
X163853809Y-82382380D01*
X163758571Y-82525238D01*
X163663333Y-82620476D01*
X163568095Y-82668095D01*
X164472857Y-82382380D02*
X165091904Y-82382380D01*
X164758571Y-82763333D01*
X164901428Y-82763333D01*
X164996666Y-82810952D01*
X165044285Y-82858571D01*
X165091904Y-82953809D01*
X165091904Y-83191904D01*
X165044285Y-83287142D01*
X164996666Y-83334761D01*
X164901428Y-83382380D01*
X164615714Y-83382380D01*
X164520476Y-83334761D01*
X164472857Y-83287142D01*
%TO.C,R12*%
X163187142Y-101162380D02*
X162853809Y-100686190D01*
X162615714Y-101162380D02*
X162615714Y-100162380D01*
X162996666Y-100162380D01*
X163091904Y-100210000D01*
X163139523Y-100257619D01*
X163187142Y-100352857D01*
X163187142Y-100495714D01*
X163139523Y-100590952D01*
X163091904Y-100638571D01*
X162996666Y-100686190D01*
X162615714Y-100686190D01*
X164139523Y-101162380D02*
X163568095Y-101162380D01*
X163853809Y-101162380D02*
X163853809Y-100162380D01*
X163758571Y-100305238D01*
X163663333Y-100400476D01*
X163568095Y-100448095D01*
X164520476Y-100257619D02*
X164568095Y-100210000D01*
X164663333Y-100162380D01*
X164901428Y-100162380D01*
X164996666Y-100210000D01*
X165044285Y-100257619D01*
X165091904Y-100352857D01*
X165091904Y-100448095D01*
X165044285Y-100590952D01*
X164472857Y-101162380D01*
X165091904Y-101162380D01*
%TO.C,R11*%
X163187142Y-98622380D02*
X162853809Y-98146190D01*
X162615714Y-98622380D02*
X162615714Y-97622380D01*
X162996666Y-97622380D01*
X163091904Y-97670000D01*
X163139523Y-97717619D01*
X163187142Y-97812857D01*
X163187142Y-97955714D01*
X163139523Y-98050952D01*
X163091904Y-98098571D01*
X162996666Y-98146190D01*
X162615714Y-98146190D01*
X164139523Y-98622380D02*
X163568095Y-98622380D01*
X163853809Y-98622380D02*
X163853809Y-97622380D01*
X163758571Y-97765238D01*
X163663333Y-97860476D01*
X163568095Y-97908095D01*
X165091904Y-98622380D02*
X164520476Y-98622380D01*
X164806190Y-98622380D02*
X164806190Y-97622380D01*
X164710952Y-97765238D01*
X164615714Y-97860476D01*
X164520476Y-97908095D01*
%TO.C,R10*%
X163187142Y-96082380D02*
X162853809Y-95606190D01*
X162615714Y-96082380D02*
X162615714Y-95082380D01*
X162996666Y-95082380D01*
X163091904Y-95130000D01*
X163139523Y-95177619D01*
X163187142Y-95272857D01*
X163187142Y-95415714D01*
X163139523Y-95510952D01*
X163091904Y-95558571D01*
X162996666Y-95606190D01*
X162615714Y-95606190D01*
X164139523Y-96082380D02*
X163568095Y-96082380D01*
X163853809Y-96082380D02*
X163853809Y-95082380D01*
X163758571Y-95225238D01*
X163663333Y-95320476D01*
X163568095Y-95368095D01*
X164758571Y-95082380D02*
X164853809Y-95082380D01*
X164949047Y-95130000D01*
X164996666Y-95177619D01*
X165044285Y-95272857D01*
X165091904Y-95463333D01*
X165091904Y-95701428D01*
X165044285Y-95891904D01*
X164996666Y-95987142D01*
X164949047Y-96034761D01*
X164853809Y-96082380D01*
X164758571Y-96082380D01*
X164663333Y-96034761D01*
X164615714Y-95987142D01*
X164568095Y-95891904D01*
X164520476Y-95701428D01*
X164520476Y-95463333D01*
X164568095Y-95272857D01*
X164615714Y-95177619D01*
X164663333Y-95130000D01*
X164758571Y-95082380D01*
%TO.C,R9*%
X163663333Y-91002380D02*
X163330000Y-90526190D01*
X163091904Y-91002380D02*
X163091904Y-90002380D01*
X163472857Y-90002380D01*
X163568095Y-90050000D01*
X163615714Y-90097619D01*
X163663333Y-90192857D01*
X163663333Y-90335714D01*
X163615714Y-90430952D01*
X163568095Y-90478571D01*
X163472857Y-90526190D01*
X163091904Y-90526190D01*
X164139523Y-91002380D02*
X164330000Y-91002380D01*
X164425238Y-90954761D01*
X164472857Y-90907142D01*
X164568095Y-90764285D01*
X164615714Y-90573809D01*
X164615714Y-90192857D01*
X164568095Y-90097619D01*
X164520476Y-90050000D01*
X164425238Y-90002380D01*
X164234761Y-90002380D01*
X164139523Y-90050000D01*
X164091904Y-90097619D01*
X164044285Y-90192857D01*
X164044285Y-90430952D01*
X164091904Y-90526190D01*
X164139523Y-90573809D01*
X164234761Y-90621428D01*
X164425238Y-90621428D01*
X164520476Y-90573809D01*
X164568095Y-90526190D01*
X164615714Y-90430952D01*
%TO.C,R8*%
X163663333Y-88462380D02*
X163330000Y-87986190D01*
X163091904Y-88462380D02*
X163091904Y-87462380D01*
X163472857Y-87462380D01*
X163568095Y-87510000D01*
X163615714Y-87557619D01*
X163663333Y-87652857D01*
X163663333Y-87795714D01*
X163615714Y-87890952D01*
X163568095Y-87938571D01*
X163472857Y-87986190D01*
X163091904Y-87986190D01*
X164234761Y-87890952D02*
X164139523Y-87843333D01*
X164091904Y-87795714D01*
X164044285Y-87700476D01*
X164044285Y-87652857D01*
X164091904Y-87557619D01*
X164139523Y-87510000D01*
X164234761Y-87462380D01*
X164425238Y-87462380D01*
X164520476Y-87510000D01*
X164568095Y-87557619D01*
X164615714Y-87652857D01*
X164615714Y-87700476D01*
X164568095Y-87795714D01*
X164520476Y-87843333D01*
X164425238Y-87890952D01*
X164234761Y-87890952D01*
X164139523Y-87938571D01*
X164091904Y-87986190D01*
X164044285Y-88081428D01*
X164044285Y-88271904D01*
X164091904Y-88367142D01*
X164139523Y-88414761D01*
X164234761Y-88462380D01*
X164425238Y-88462380D01*
X164520476Y-88414761D01*
X164568095Y-88367142D01*
X164615714Y-88271904D01*
X164615714Y-88081428D01*
X164568095Y-87986190D01*
X164520476Y-87938571D01*
X164425238Y-87890952D01*
%TO.C,R7*%
X163663333Y-85922380D02*
X163330000Y-85446190D01*
X163091904Y-85922380D02*
X163091904Y-84922380D01*
X163472857Y-84922380D01*
X163568095Y-84970000D01*
X163615714Y-85017619D01*
X163663333Y-85112857D01*
X163663333Y-85255714D01*
X163615714Y-85350952D01*
X163568095Y-85398571D01*
X163472857Y-85446190D01*
X163091904Y-85446190D01*
X163996666Y-84922380D02*
X164663333Y-84922380D01*
X164234761Y-85922380D01*
%TO.C,R6*%
X163663333Y-103702380D02*
X163330000Y-103226190D01*
X163091904Y-103702380D02*
X163091904Y-102702380D01*
X163472857Y-102702380D01*
X163568095Y-102750000D01*
X163615714Y-102797619D01*
X163663333Y-102892857D01*
X163663333Y-103035714D01*
X163615714Y-103130952D01*
X163568095Y-103178571D01*
X163472857Y-103226190D01*
X163091904Y-103226190D01*
X164520476Y-102702380D02*
X164330000Y-102702380D01*
X164234761Y-102750000D01*
X164187142Y-102797619D01*
X164091904Y-102940476D01*
X164044285Y-103130952D01*
X164044285Y-103511904D01*
X164091904Y-103607142D01*
X164139523Y-103654761D01*
X164234761Y-103702380D01*
X164425238Y-103702380D01*
X164520476Y-103654761D01*
X164568095Y-103607142D01*
X164615714Y-103511904D01*
X164615714Y-103273809D01*
X164568095Y-103178571D01*
X164520476Y-103130952D01*
X164425238Y-103083333D01*
X164234761Y-103083333D01*
X164139523Y-103130952D01*
X164091904Y-103178571D01*
X164044285Y-103273809D01*
%TO.C,R5*%
X163663333Y-93542380D02*
X163330000Y-93066190D01*
X163091904Y-93542380D02*
X163091904Y-92542380D01*
X163472857Y-92542380D01*
X163568095Y-92590000D01*
X163615714Y-92637619D01*
X163663333Y-92732857D01*
X163663333Y-92875714D01*
X163615714Y-92970952D01*
X163568095Y-93018571D01*
X163472857Y-93066190D01*
X163091904Y-93066190D01*
X164568095Y-92542380D02*
X164091904Y-92542380D01*
X164044285Y-93018571D01*
X164091904Y-92970952D01*
X164187142Y-92923333D01*
X164425238Y-92923333D01*
X164520476Y-92970952D01*
X164568095Y-93018571D01*
X164615714Y-93113809D01*
X164615714Y-93351904D01*
X164568095Y-93447142D01*
X164520476Y-93494761D01*
X164425238Y-93542380D01*
X164187142Y-93542380D01*
X164091904Y-93494761D01*
X164044285Y-93447142D01*
%TO.C,R4*%
X163663333Y-80842380D02*
X163330000Y-80366190D01*
X163091904Y-80842380D02*
X163091904Y-79842380D01*
X163472857Y-79842380D01*
X163568095Y-79890000D01*
X163615714Y-79937619D01*
X163663333Y-80032857D01*
X163663333Y-80175714D01*
X163615714Y-80270952D01*
X163568095Y-80318571D01*
X163472857Y-80366190D01*
X163091904Y-80366190D01*
X164520476Y-80175714D02*
X164520476Y-80842380D01*
X164282380Y-79794761D02*
X164044285Y-80509047D01*
X164663333Y-80509047D01*
%TO.C,R3*%
X135962380Y-105244166D02*
X135486190Y-105577500D01*
X135962380Y-105815595D02*
X134962380Y-105815595D01*
X134962380Y-105434642D01*
X135010000Y-105339404D01*
X135057619Y-105291785D01*
X135152857Y-105244166D01*
X135295714Y-105244166D01*
X135390952Y-105291785D01*
X135438571Y-105339404D01*
X135486190Y-105434642D01*
X135486190Y-105815595D01*
X134962380Y-104910833D02*
X134962380Y-104291785D01*
X135343333Y-104625119D01*
X135343333Y-104482261D01*
X135390952Y-104387023D01*
X135438571Y-104339404D01*
X135533809Y-104291785D01*
X135771904Y-104291785D01*
X135867142Y-104339404D01*
X135914761Y-104387023D01*
X135962380Y-104482261D01*
X135962380Y-104767976D01*
X135914761Y-104863214D01*
X135867142Y-104910833D01*
%TO.C,R2*%
X128342380Y-105244166D02*
X127866190Y-105577500D01*
X128342380Y-105815595D02*
X127342380Y-105815595D01*
X127342380Y-105434642D01*
X127390000Y-105339404D01*
X127437619Y-105291785D01*
X127532857Y-105244166D01*
X127675714Y-105244166D01*
X127770952Y-105291785D01*
X127818571Y-105339404D01*
X127866190Y-105434642D01*
X127866190Y-105815595D01*
X127437619Y-104863214D02*
X127390000Y-104815595D01*
X127342380Y-104720357D01*
X127342380Y-104482261D01*
X127390000Y-104387023D01*
X127437619Y-104339404D01*
X127532857Y-104291785D01*
X127628095Y-104291785D01*
X127770952Y-104339404D01*
X128342380Y-104910833D01*
X128342380Y-104291785D01*
%TO.C,R1*%
X137992380Y-100829166D02*
X137516190Y-101162500D01*
X137992380Y-101400595D02*
X136992380Y-101400595D01*
X136992380Y-101019642D01*
X137040000Y-100924404D01*
X137087619Y-100876785D01*
X137182857Y-100829166D01*
X137325714Y-100829166D01*
X137420952Y-100876785D01*
X137468571Y-100924404D01*
X137516190Y-101019642D01*
X137516190Y-101400595D01*
X137992380Y-99876785D02*
X137992380Y-100448214D01*
X137992380Y-100162500D02*
X136992380Y-100162500D01*
X137135238Y-100257738D01*
X137230476Y-100352976D01*
X137278095Y-100448214D01*
%TO.C,Q1*%
X138334761Y-112347619D02*
X138239523Y-112300000D01*
X138144285Y-112204761D01*
X138001428Y-112061904D01*
X137906190Y-112014285D01*
X137810952Y-112014285D01*
X137858571Y-112252380D02*
X137763333Y-112204761D01*
X137668095Y-112109523D01*
X137620476Y-111919047D01*
X137620476Y-111585714D01*
X137668095Y-111395238D01*
X137763333Y-111300000D01*
X137858571Y-111252380D01*
X138049047Y-111252380D01*
X138144285Y-111300000D01*
X138239523Y-111395238D01*
X138287142Y-111585714D01*
X138287142Y-111919047D01*
X138239523Y-112109523D01*
X138144285Y-112204761D01*
X138049047Y-112252380D01*
X137858571Y-112252380D01*
X139239523Y-112252380D02*
X138668095Y-112252380D01*
X138953809Y-112252380D02*
X138953809Y-111252380D01*
X138858571Y-111395238D01*
X138763333Y-111490476D01*
X138668095Y-111538095D01*
%TO.C,J6*%
X191436666Y-77132380D02*
X191436666Y-77846666D01*
X191389047Y-77989523D01*
X191293809Y-78084761D01*
X191150952Y-78132380D01*
X191055714Y-78132380D01*
X192341428Y-77132380D02*
X192150952Y-77132380D01*
X192055714Y-77180000D01*
X192008095Y-77227619D01*
X191912857Y-77370476D01*
X191865238Y-77560952D01*
X191865238Y-77941904D01*
X191912857Y-78037142D01*
X191960476Y-78084761D01*
X192055714Y-78132380D01*
X192246190Y-78132380D01*
X192341428Y-78084761D01*
X192389047Y-78037142D01*
X192436666Y-77941904D01*
X192436666Y-77703809D01*
X192389047Y-77608571D01*
X192341428Y-77560952D01*
X192246190Y-77513333D01*
X192055714Y-77513333D01*
X191960476Y-77560952D01*
X191912857Y-77608571D01*
X191865238Y-77703809D01*
%TO.C,J5*%
X183527106Y-75320700D02*
X183527106Y-76034986D01*
X183479487Y-76177843D01*
X183384249Y-76273081D01*
X183241392Y-76320700D01*
X183146154Y-76320700D01*
X184479487Y-75320700D02*
X184003297Y-75320700D01*
X183955678Y-75796891D01*
X184003297Y-75749272D01*
X184098535Y-75701653D01*
X184336630Y-75701653D01*
X184431868Y-75749272D01*
X184479487Y-75796891D01*
X184527106Y-75892129D01*
X184527106Y-76130224D01*
X184479487Y-76225462D01*
X184431868Y-76273081D01*
X184336630Y-76320700D01*
X184098535Y-76320700D01*
X184003297Y-76273081D01*
X183955678Y-76225462D01*
%TO.C,J4*%
X178736666Y-54332380D02*
X178736666Y-55046666D01*
X178689047Y-55189523D01*
X178593809Y-55284761D01*
X178450952Y-55332380D01*
X178355714Y-55332380D01*
X179641428Y-54665714D02*
X179641428Y-55332380D01*
X179403333Y-54284761D02*
X179165238Y-54999047D01*
X179784285Y-54999047D01*
%TO.C,J3*%
X149968626Y-53002380D02*
X149968626Y-53716666D01*
X149921007Y-53859523D01*
X149825769Y-53954761D01*
X149682912Y-54002380D01*
X149587674Y-54002380D01*
X150349579Y-53002380D02*
X150968626Y-53002380D01*
X150635293Y-53383333D01*
X150778150Y-53383333D01*
X150873388Y-53430952D01*
X150921007Y-53478571D01*
X150968626Y-53573809D01*
X150968626Y-53811904D01*
X150921007Y-53907142D01*
X150873388Y-53954761D01*
X150778150Y-54002380D01*
X150492436Y-54002380D01*
X150397198Y-53954761D01*
X150349579Y-53907142D01*
%TO.C,J2*%
X128294880Y-60023333D02*
X129009166Y-60023333D01*
X129152023Y-60070952D01*
X129247261Y-60166190D01*
X129294880Y-60309047D01*
X129294880Y-60404285D01*
X128390119Y-59594761D02*
X128342500Y-59547142D01*
X128294880Y-59451904D01*
X128294880Y-59213809D01*
X128342500Y-59118571D01*
X128390119Y-59070952D01*
X128485357Y-59023333D01*
X128580595Y-59023333D01*
X128723452Y-59070952D01*
X129294880Y-59642380D01*
X129294880Y-59023333D01*
%TO.C,J1*%
X131746666Y-86022380D02*
X131746666Y-86736666D01*
X131699047Y-86879523D01*
X131603809Y-86974761D01*
X131460952Y-87022380D01*
X131365714Y-87022380D01*
X132746666Y-87022380D02*
X132175238Y-87022380D01*
X132460952Y-87022380D02*
X132460952Y-86022380D01*
X132365714Y-86165238D01*
X132270476Y-86260476D01*
X132175238Y-86308095D01*
%TO.C,D1*%
X147232380Y-111228095D02*
X146232380Y-111228095D01*
X146232380Y-110990000D01*
X146280000Y-110847142D01*
X146375238Y-110751904D01*
X146470476Y-110704285D01*
X146660952Y-110656666D01*
X146803809Y-110656666D01*
X146994285Y-110704285D01*
X147089523Y-110751904D01*
X147184761Y-110847142D01*
X147232380Y-110990000D01*
X147232380Y-111228095D01*
X147232380Y-109704285D02*
X147232380Y-110275714D01*
X147232380Y-109990000D02*
X146232380Y-109990000D01*
X146375238Y-110085238D01*
X146470476Y-110180476D01*
X146518095Y-110275714D01*
%TO.C,C5*%
X188697142Y-87796666D02*
X188744761Y-87844285D01*
X188792380Y-87987142D01*
X188792380Y-88082380D01*
X188744761Y-88225238D01*
X188649523Y-88320476D01*
X188554285Y-88368095D01*
X188363809Y-88415714D01*
X188220952Y-88415714D01*
X188030476Y-88368095D01*
X187935238Y-88320476D01*
X187840000Y-88225238D01*
X187792380Y-88082380D01*
X187792380Y-87987142D01*
X187840000Y-87844285D01*
X187887619Y-87796666D01*
X187792380Y-86891904D02*
X187792380Y-87368095D01*
X188268571Y-87415714D01*
X188220952Y-87368095D01*
X188173333Y-87272857D01*
X188173333Y-87034761D01*
X188220952Y-86939523D01*
X188268571Y-86891904D01*
X188363809Y-86844285D01*
X188601904Y-86844285D01*
X188697142Y-86891904D01*
X188744761Y-86939523D01*
X188792380Y-87034761D01*
X188792380Y-87272857D01*
X188744761Y-87368095D01*
X188697142Y-87415714D01*
%TO.C,C4*%
X139167142Y-109386666D02*
X139214761Y-109434285D01*
X139262380Y-109577142D01*
X139262380Y-109672380D01*
X139214761Y-109815238D01*
X139119523Y-109910476D01*
X139024285Y-109958095D01*
X138833809Y-110005714D01*
X138690952Y-110005714D01*
X138500476Y-109958095D01*
X138405238Y-109910476D01*
X138310000Y-109815238D01*
X138262380Y-109672380D01*
X138262380Y-109577142D01*
X138310000Y-109434285D01*
X138357619Y-109386666D01*
X138595714Y-108529523D02*
X139262380Y-108529523D01*
X138214761Y-108767619D02*
X138929047Y-109005714D01*
X138929047Y-108386666D01*
%TO.C,C3*%
X137137142Y-96354166D02*
X137184761Y-96401785D01*
X137232380Y-96544642D01*
X137232380Y-96639880D01*
X137184761Y-96782738D01*
X137089523Y-96877976D01*
X136994285Y-96925595D01*
X136803809Y-96973214D01*
X136660952Y-96973214D01*
X136470476Y-96925595D01*
X136375238Y-96877976D01*
X136280000Y-96782738D01*
X136232380Y-96639880D01*
X136232380Y-96544642D01*
X136280000Y-96401785D01*
X136327619Y-96354166D01*
X136232380Y-96020833D02*
X136232380Y-95401785D01*
X136613333Y-95735119D01*
X136613333Y-95592261D01*
X136660952Y-95497023D01*
X136708571Y-95449404D01*
X136803809Y-95401785D01*
X137041904Y-95401785D01*
X137137142Y-95449404D01*
X137184761Y-95497023D01*
X137232380Y-95592261D01*
X137232380Y-95877976D01*
X137184761Y-95973214D01*
X137137142Y-96020833D01*
%TO.C,C2*%
X135723333Y-69317142D02*
X135675714Y-69364761D01*
X135532857Y-69412380D01*
X135437619Y-69412380D01*
X135294761Y-69364761D01*
X135199523Y-69269523D01*
X135151904Y-69174285D01*
X135104285Y-68983809D01*
X135104285Y-68840952D01*
X135151904Y-68650476D01*
X135199523Y-68555238D01*
X135294761Y-68460000D01*
X135437619Y-68412380D01*
X135532857Y-68412380D01*
X135675714Y-68460000D01*
X135723333Y-68507619D01*
X136104285Y-68507619D02*
X136151904Y-68460000D01*
X136247142Y-68412380D01*
X136485238Y-68412380D01*
X136580476Y-68460000D01*
X136628095Y-68507619D01*
X136675714Y-68602857D01*
X136675714Y-68698095D01*
X136628095Y-68840952D01*
X136056666Y-69412380D01*
X136675714Y-69412380D01*
%TO.C,C1*%
X137137142Y-88734166D02*
X137184761Y-88781785D01*
X137232380Y-88924642D01*
X137232380Y-89019880D01*
X137184761Y-89162738D01*
X137089523Y-89257976D01*
X136994285Y-89305595D01*
X136803809Y-89353214D01*
X136660952Y-89353214D01*
X136470476Y-89305595D01*
X136375238Y-89257976D01*
X136280000Y-89162738D01*
X136232380Y-89019880D01*
X136232380Y-88924642D01*
X136280000Y-88781785D01*
X136327619Y-88734166D01*
X137232380Y-87781785D02*
X137232380Y-88353214D01*
X137232380Y-88067500D02*
X136232380Y-88067500D01*
X136375238Y-88162738D01*
X136470476Y-88257976D01*
X136518095Y-88353214D01*
%TO.C,BZ1*%
X151719047Y-106098571D02*
X151861904Y-106146190D01*
X151909523Y-106193809D01*
X151957142Y-106289047D01*
X151957142Y-106431904D01*
X151909523Y-106527142D01*
X151861904Y-106574761D01*
X151766666Y-106622380D01*
X151385714Y-106622380D01*
X151385714Y-105622380D01*
X151719047Y-105622380D01*
X151814285Y-105670000D01*
X151861904Y-105717619D01*
X151909523Y-105812857D01*
X151909523Y-105908095D01*
X151861904Y-106003333D01*
X151814285Y-106050952D01*
X151719047Y-106098571D01*
X151385714Y-106098571D01*
X152290476Y-105622380D02*
X152957142Y-105622380D01*
X152290476Y-106622380D01*
X152957142Y-106622380D01*
X153861904Y-106622380D02*
X153290476Y-106622380D01*
X153576190Y-106622380D02*
X153576190Y-105622380D01*
X153480952Y-105765238D01*
X153385714Y-105860476D01*
X153290476Y-105908095D01*
X150971428Y-109200952D02*
X150971428Y-108439047D01*
X151352380Y-108820000D02*
X150590476Y-108820000D01*
X150971428Y-109200952D02*
X150971428Y-108439047D01*
X151352380Y-108820000D02*
X150590476Y-108820000D01*
%TD*%
M02*
